<?xml version="1.0"?>
<svg xmlns="http://www.w3.org/2000/svg" xmlns:xlink="http://www.w3.org/1999/xlink" version="1.1" id="Capa_1" x="0px" y="0px" viewBox="0 0 512.001 512.001" style="enable-background:new 0 0 512.001 512.001;" xml:space="preserve" width="512px" height="512px" class=""><g><g>
	<g>
		<g>
			<path d="M68.532,142.246c8.109-5.386,15.733-11.469,22.786-18.179l4.603-4.169c5.856-4.882,11.186-10.362,15.902-16.353     c5.737-8.04,4.772-18.174,1.563-30.924c-2.109-7.979-4.832-15.783-8.143-23.343c-34.987,25.576-62.954,59.566-81.313,98.824     C38.788,157.335,56.343,150.093,68.532,142.246z" data-original="#000000" class="active-path" data-old_color="#000000" fill="#53B793"/>
			<path d="M28.393,260.09c-3.754-7.515-17.362-11.206-28.177-12.577C0.123,250.337,0,253.154,0,256.001     c-0.021,25.827,3.88,51.507,11.569,76.162c2.435-10.669,5.651-21.436,8.744-31.662C24.813,285.626,30.974,265.251,28.393,260.09z     " data-original="#000000" class="active-path" data-old_color="#000000" fill="#53B793"/>
			<path d="M331.996,11.515c-21.998,7.576-42.698,18.495-61.37,32.375l-0.853,0.638c-4.339,3.259-12.424,9.326-12.911,13.183     c-0.036,0.295-0.152,1.188,1.335,3.04c2.564,2.835,5.343,5.468,8.313,7.875c9.455,8.201,21.228,18.406,20.375,32.143     c-0.243,4.031-2.118,7.788-5.192,10.406c-7.696,6.701-21.652,6.317-35.25,5.344c-1.487-0.107-2.719-0.201-3.58-0.223     c-16.391-1.025-32.844-0.225-49.058,2.384c-5.273,0.652-10.127,3.203-13.656,7.174c-1.108,1.773-1.375,3.945-0.728,5.933     c1.412,5.923,5.246,10.982,10.567,13.942c4.096,1.051,8.375,1.179,12.527,0.375c2.871-0.286,5.705-0.549,8.411-0.549     c15.213,1.27,29.756,6.814,41.955,15.991l0.911,0.567c1.397,0.857,2.929,1.844,4.527,2.875     c7.973,5.134,17.879,11.518,24.446,9.045c3.777-1.932,6.965-4.843,9.232-8.429c2.35-3.09,4.975-5.96,7.844-8.576     c8.117-7.059,18.548-10.882,29.304-10.741c8.788-1.122,17.349,3.332,21.473,11.174c8.446,18.04-15.924,49.473-23.594,58.679     c-9.254,11.584-21.109,20.822-34.603,26.964c-12.128,5.424-25.717,6.651-38.621,3.487c-13.354-3.919-26.248-9.262-38.46-15.937     c-22.964-11.478-44.652-22.335-64.964-12.187c-18.168,8.722-30.218,26.567-31.518,46.679c0.001,0.504-0.041,1.007-0.125,1.504     c-0.299,1.862-7.035,46.255,29.349,53.531c45.585,9.116,78.679,18.871,89.362,61.603c2.16,9.175,3.757,18.474,4.781,27.844     c3.018,23.777,5.045,33.625,25.138,38.647c18.661,4.67,30.902,6.446,38.304,1.759c6.366-4.027,11.112-14.25,14.513-31.255     c9.563-47.812,19.411-77.652,41.446-88.67c7.129-3.563,13.755-22.924,9.799-33.621c-0.871-2.353-2.478-6.728-12.634-4.187     c-25.058,6.272-32.875-9.12-34.674-13.987c-5.129-18.724,2.699-38.587,19.223-48.777c2.491-1.201,5.111-2.114,7.808-2.723     c25.495-5.786,85.558,4.344,105.031,43.393c12.546,25.101,30.189,36.723,51.154,34.289c3.093-15.98,4.655-32.218,4.667-48.494     C511.864,143.929,438.972,44.925,331.996,11.515z" data-original="#000000" class="active-path" data-old_color="#000000" fill="#53B793"/>
			<path d="M439.822,278.376c-13.929-27.929-63.156-38.58-84.522-33.759c-1.307,0.287-2.578,0.717-3.79,1.281     c-8.152,5.992-12.137,16.133-10.245,26.071c0.496,1.33,1.991,5.362,13.089,2.589c16.317-4.085,29.103,1.75,34.223,15.585     c6.982,18.879-2.844,48.357-18.772,56.321c-15.228,7.612-23.683,35.848-31.696,75.902c-4.558,22.786-11.545,36.08-22.661,43.116     c-6.474,3.88-13.93,5.807-21.473,5.549c-10.512-0.437-20.935-2.121-31.049-5.018c-33.022-8.259-35.848-30.518-38.839-54.089     c-0.937-8.65-2.401-17.234-4.384-25.705c-7.491-29.973-28.308-38.732-75.21-48.112c-42.598-8.518-47.37-51.607-43.902-73.808     c1.565-26.742,17.486-50.54,41.607-62.192c28.451-14.232,56.54-0.197,81.321,12.192c11.022,6.058,22.653,10.934,34.7,14.544     c9.037,2.173,18.54,1.274,27.009-2.554c10.693-4.931,20.09-12.284,27.447-21.478c14.143-17.018,23.138-35.397,21.388-39.571     c-1.581-0.538-3.252-0.766-4.92-0.67c-6.34-0.148-12.506,2.079-17.29,6.242c-2.042,1.916-3.915,4.004-5.598,6.241     c-4.251,6.199-10.156,11.081-17.045,14.089c-15.214,5.71-29.996-3.821-40.799-10.79c-1.473-0.951-2.888-1.862-4.228-2.679     l-0.969-0.607c-9.411-7.217-20.581-11.784-32.353-13.228c-2.067,0-4.29,0.237-6.549,0.46c-7.177,1.277-14.562,0.682-21.442-1.728     c-10.746-5.243-18.56-15.047-21.272-26.692c-1.737-6.795-0.589-14.006,3.174-19.924c6.177-8.177,15.293-13.63,25.419-15.206     c17.559-2.924,35.394-3.841,53.161-2.732c1.058,0.027,2.572,0.129,4.389,0.259c6.87,0.93,13.842,0.804,20.674-0.375     c-3.466-6.089-8.201-11.362-13.884-15.46c-3.827-3.106-7.377-6.54-10.607-10.263c-3.993-4.618-5.879-10.691-5.205-16.759     c1.46-11.54,12.219-19.616,20.076-25.513l0.853-0.638c13.118-9.771,27.196-18.183,42.016-25.108     C239.165-7.278,174.649,5.065,120.786,38.764c4.29,9.479,7.746,19.314,10.331,29.393c3.665,14.558,6.009,31.411-4.411,46.009     c-5.461,7.106-11.688,13.59-18.567,19.335l-4.42,4.005c-7.826,7.429-16.287,14.16-25.286,20.116     c-11.536,8.048-25.141,12.611-39.196,13.147c-7.856,0.009-15.586-1.968-22.473-5.747c-7.894,20.646-13.057,42.235-15.36,64.219     c13.373,1.501,35.225,6.432,43.346,22.671c5.83,11.67,0.196,30.299-6.933,53.884c-6.643,21.954-13.987,46.586-11.129,63.834     C69.913,456.76,158.738,511.908,256,512.001c115.433-0.158,216.53-77.429,246.98-188.774     C483.864,323.601,458.47,315.668,439.822,278.376z" data-original="#000000" class="active-path" data-old_color="#000000" fill="#53B793"/>
		</g>
	</g>
</g></g> </svg>
