<?xml version="1.0" encoding="utf-8"?>
<!-- Generator: Adobe Illustrator 24.1.3, SVG Export Plug-In . SVG Version: 6.00 Build 0)  -->
<svg version="1.1" id="Calque_1" xmlns="http://www.w3.org/2000/svg" xmlns:xlink="http://www.w3.org/1999/xlink" x="0px" y="0px"
	 viewBox="0 0 45.61 45.61" style="enable-background:new 0 0 45.61 45.61;" xml:space="preserve">
<style type="text/css">
	.st0{fill:#FAFAFA;}
	.st1{fill:#52B793;}
	.st2{fill:#333332;}
</style>
<circle class="st0" cx="22.9" cy="22.78" r="22.3"/>
<g>
	<g>
		<path class="st1" d="M27.69,15.91c-2.2-2.96-4.42-5.36-4.44-5.38c-0.11-0.12-0.27-0.19-0.44-0.19c-0.17,0-0.33,0.07-0.44,0.19
			c-0.02,0.02-2.25,2.42-4.44,5.38c-3,4.04-4.52,7.18-4.52,9.33c0,5.18,4.22,9.4,9.4,9.4c5.18,0,9.4-4.22,9.4-9.4
			C32.2,23.09,30.68,19.95,27.69,15.91z M23.74,31.6c-0.49,0.12-1,0.18-1.51,0.18c-3.62,0-6.56-2.94-6.56-6.56
			c0-0.5,0.15-1.4,0.89-2.87c0.07-0.15,0.24-0.22,0.4-0.17c0.16,0.05,0.26,0.2,0.24,0.37c-0.02,0.14-0.03,0.28-0.03,0.4
			c0,3.88,2.76,7.25,6.56,8.01C23.89,30.97,24,31.1,24,31.26C24.01,31.42,23.9,31.56,23.74,31.6z"/>
	</g>
</g>
</svg>
