<?xml version="1.0" encoding="utf-8"?>
<!-- Generator: Adobe Illustrator 24.1.3, SVG Export Plug-In . SVG Version: 6.00 Build 0)  -->
<svg version="1.1" id="Calque_1" xmlns="http://www.w3.org/2000/svg" xmlns:xlink="http://www.w3.org/1999/xlink" x="0px" y="0px"
	 viewBox="0 0 45.61 45.61" style="enable-background:new 0 0 45.61 45.61;" xml:space="preserve">
<style type="text/css">
	.st0{fill:#FAFAFA;}
	.st1{fill:#52B793;}
	.st2{fill:#333332;}
</style>
<circle class="st0" cx="22.9" cy="22.78" r="22.3"/>
<g>
	<g>
		<g>
			<path class="st1" d="M33.34,34.24c-0.01-0.02-0.01-0.03-0.02-0.05c-0.64-1.94-2.43-3.24-4.48-3.24c-0.74,0-1.44,0.17-2.07,0.48
				c-0.07-0.06-0.13-0.12-0.2-0.18c-0.93-0.81-2.1-1.29-3.32-1.4v-1.8c0.36-0.17,0.86-0.21,1.44-0.24c1.15-0.07,2.58-0.15,3.8-1.48
				c1.56-1.71,1.9-4.8,1.55-5.58c-0.12-0.27-0.31-0.31-0.41-0.31c-0.1,0-0.2,0.04-0.29,0.11c-0.32,0.25-0.88,0.28-1.53,0.32
				c-1.15,0.06-2.57,0.14-3.75,1.42c-0.32,0.35-0.59,0.76-0.81,1.18v-4.17c0.29-0.31,0.73-0.57,1.22-0.87
				c1.14-0.69,2.55-1.54,3.08-3.54c0.61-2.33-0.43-5.32-1.16-6.26c-0.2-0.26-0.4-0.39-0.59-0.39c-0.08,0-0.29,0.03-0.41,0.29
				c-0.19,0.44-0.76,0.78-1.42,1.17c-1.14,0.68-2.55,1.52-3.06,3.45c-0.64,2.43,0.46,5.28,1.16,6.19c0.02,0.02,0.04,0.05,0.05,0.07
				v2.26c-0.21-0.77-0.6-1.57-1.45-2.26C19.4,18.37,17.47,18,16.2,18c-1.23,0-1.37,0.32-1.42,0.43c-0.03,0.07-0.09,0.26,0.09,0.46
				c0.27,0.3,0.33,0.86,0.4,1.51c0.13,1.14,0.28,2.56,1.63,3.66c1.26,1.03,3.09,1.4,4.38,1.4c0.34,0,0.62-0.02,0.85-0.07v4.48
				c-1.17,0.13-2.28,0.61-3.18,1.38c-0.07,0.06-0.14,0.12-0.2,0.18c-0.63-0.31-1.33-0.48-2.07-0.48c-0.97,0-1.9,0.29-2.69,0.85
				c-0.77,0.54-1.36,1.29-1.7,2.17c-0.13,0.33-0.12,0.61,0.02,0.82c0.14,0.2,0.37,0.3,0.7,0.3h3.94h4.41h2.79h4.41h4.23
				c0.25,0,0.43-0.07,0.53-0.22C33.48,34.64,33.39,34.38,33.34,34.24z M20.93,23.6c-0.01-0.01-0.03-0.03-0.04-0.04l-0.02-0.02
				l-0.01-0.01l0,0c0,0,0.01,0.01,0,0.01l0,0l-0.01-0.01c-0.03-0.02-0.06-0.05-0.09-0.08c-0.06-0.05-0.12-0.1-0.19-0.15
				c-0.26-0.19-0.56-0.37-0.89-0.54c-0.33-0.17-0.67-0.34-0.99-0.54c-0.16-0.1-0.31-0.21-0.45-0.32c-0.14-0.11-0.26-0.24-0.36-0.37
				c-0.1-0.13-0.18-0.25-0.23-0.38c-0.01-0.03-0.02-0.06-0.03-0.09c-0.01-0.03-0.02-0.06-0.03-0.08c-0.01-0.05-0.02-0.1-0.03-0.15
				c-0.01-0.05-0.01-0.09-0.01-0.12c0-0.03,0-0.06,0-0.09c0-0.05,0-0.07,0-0.07s0.01,0.02,0.04,0.06c0.01,0.02,0.03,0.05,0.05,0.07
				c0.02,0.03,0.04,0.06,0.07,0.09c0.03,0.03,0.06,0.07,0.09,0.1c0.04,0.03,0.07,0.07,0.11,0.11c0.08,0.07,0.18,0.15,0.29,0.22
				c0.11,0.07,0.24,0.14,0.38,0.2c0.14,0.07,0.29,0.13,0.45,0.2c0.32,0.13,0.68,0.28,1.04,0.46c0.18,0.09,0.35,0.2,0.52,0.32
				c0.17,0.12,0.33,0.25,0.47,0.39c0.07,0.07,0.14,0.15,0.2,0.22c0.03,0.04,0.06,0.08,0.09,0.12l0.01,0.01l0,0
				c0-0.01,0.01,0.01,0.01,0.01l0,0l0,0.01l0.02,0.03c0.01,0.02,0.02,0.04,0.03,0.05c0.09,0.14,0.17,0.28,0.24,0.41
				c0.03,0.06,0.07,0.13,0.1,0.19c0.03,0.06,0.06,0.12,0.08,0.17c0.05,0.11,0.09,0.21,0.13,0.29c0.07,0.16,0.1,0.26,0.1,0.26
				s-0.09-0.06-0.22-0.16c-0.14-0.11-0.32-0.27-0.54-0.46C21.16,23.83,21.05,23.72,20.93,23.6z M22.78,18.54
				c0.03-0.09,0.07-0.21,0.12-0.34c0.05-0.13,0.11-0.27,0.17-0.43c0.06-0.16,0.14-0.33,0.21-0.5c0.01-0.02,0.02-0.04,0.03-0.07
				l0.02-0.03l0-0.01l0,0c0,0-0.01,0.01,0,0.01l0,0l0.01-0.02c0.02-0.04,0.03-0.08,0.05-0.13c0.03-0.09,0.06-0.17,0.08-0.27
				c0.1-0.37,0.17-0.77,0.22-1.2c0.05-0.43,0.08-0.87,0.16-1.3c0.04-0.21,0.09-0.42,0.15-0.62c0.06-0.2,0.14-0.38,0.23-0.54
				c0.09-0.16,0.19-0.3,0.3-0.41c0.02-0.03,0.05-0.05,0.08-0.08c0.03-0.02,0.05-0.05,0.08-0.07c0.05-0.04,0.1-0.07,0.14-0.1
				c0.05-0.03,0.09-0.05,0.12-0.07c0.03-0.02,0.07-0.03,0.09-0.04c0.05-0.02,0.08-0.03,0.08-0.03s-0.02,0.02-0.05,0.07
				c-0.02,0.02-0.04,0.05-0.06,0.08c-0.02,0.03-0.04,0.07-0.07,0.11c-0.02,0.04-0.05,0.09-0.08,0.14c-0.02,0.05-0.05,0.1-0.08,0.16
				c-0.01,0.03-0.02,0.06-0.04,0.09c-0.01,0.03-0.02,0.06-0.03,0.1c-0.01,0.03-0.02,0.07-0.03,0.1c-0.01,0.04-0.02,0.07-0.03,0.11
				c-0.03,0.15-0.06,0.32-0.07,0.49c-0.02,0.18-0.02,0.37-0.03,0.57c-0.01,0.41-0.02,0.85-0.07,1.31c-0.03,0.23-0.06,0.46-0.12,0.69
				c-0.05,0.23-0.13,0.45-0.22,0.66c-0.05,0.11-0.1,0.21-0.15,0.3c-0.03,0.05-0.06,0.09-0.09,0.14l-0.01,0.02l0,0l-0.01,0.01l0,0
				l-0.01,0.01l-0.02,0.03c-0.01,0.02-0.03,0.04-0.04,0.06c-0.11,0.16-0.23,0.3-0.33,0.43c-0.05,0.07-0.1,0.13-0.15,0.19
				c-0.05,0.06-0.1,0.11-0.15,0.17c-0.09,0.1-0.18,0.19-0.25,0.26c-0.14,0.14-0.23,0.22-0.23,0.22S22.72,18.73,22.78,18.54z
				 M24.3,26.32L24.3,26.32l0.01-0.01c0.03-0.03,0.06-0.05,0.08-0.08c0.05-0.06,0.11-0.11,0.17-0.17c0.22-0.24,0.43-0.52,0.63-0.83
				c0.21-0.3,0.41-0.63,0.65-0.93c0.12-0.15,0.24-0.29,0.37-0.41c0.13-0.13,0.27-0.23,0.4-0.32c0.14-0.08,0.27-0.15,0.4-0.19
				c0.03-0.01,0.06-0.02,0.09-0.02c0.03-0.01,0.06-0.01,0.09-0.02c0.06-0.01,0.11-0.01,0.15-0.02c0.05,0,0.09,0,0.12,0
				c0.03,0,0.06,0.01,0.09,0.01c0.05,0.01,0.07,0.01,0.07,0.01s-0.02,0.01-0.06,0.03c-0.02,0.01-0.05,0.02-0.08,0.04
				c-0.03,0.02-0.06,0.04-0.1,0.06c-0.03,0.02-0.07,0.05-0.11,0.08c-0.04,0.03-0.08,0.06-0.12,0.1c-0.08,0.07-0.16,0.16-0.25,0.26
				c-0.08,0.1-0.16,0.22-0.24,0.35c-0.08,0.13-0.16,0.27-0.25,0.43c-0.17,0.3-0.35,0.65-0.58,0.98c-0.11,0.17-0.24,0.33-0.37,0.48
				c-0.14,0.15-0.29,0.3-0.44,0.42c-0.08,0.06-0.16,0.12-0.24,0.17c-0.04,0.02-0.08,0.05-0.13,0.07l-0.02,0.01l0,0
				c0.01,0-0.01,0.01-0.01,0.01l0,0l-0.01,0l-0.03,0.01c-0.02,0.01-0.04,0.02-0.06,0.03c-0.15,0.07-0.3,0.13-0.43,0.19
				c-0.07,0.03-0.13,0.05-0.2,0.08c-0.06,0.02-0.12,0.05-0.18,0.06c-0.11,0.04-0.22,0.07-0.3,0.09c-0.17,0.05-0.27,0.07-0.27,0.07
				s0.06-0.08,0.19-0.2c0.12-0.13,0.3-0.29,0.52-0.49c0.11-0.1,0.23-0.2,0.36-0.3c0.02-0.01,0.03-0.03,0.05-0.04L24.3,26.32
				L24.3,26.32L24.3,26.32C24.31,26.31,24.3,26.32,24.3,26.32z"/>
		</g>
	</g>
</g>
</svg>
