<?xml version="1.0" encoding="utf-8"?>
<!-- Generator: Adobe Illustrator 24.1.3, SVG Export Plug-In . SVG Version: 6.00 Build 0)  -->
<svg version="1.1" id="Calque_1" xmlns="http://www.w3.org/2000/svg" xmlns:xlink="http://www.w3.org/1999/xlink" x="0px" y="0px"
	 viewBox="0 0 45.61 45.61" style="enable-background:new 0 0 45.61 45.61;" xml:space="preserve">
<style type="text/css">
	.st0{fill:#FAFAFA;}
	.st1{fill:#333332;}
	.st2{fill:#52B793;}
</style>
<circle class="st0" cx="22.9" cy="22.78" r="22.3"/>
<g>
	<g>
		<g>
			<path class="st2" d="M22.58,23.32c-2.12,0-3.95,0.78-5.42,2.32c-2.07,2.17-2.71,5.04-2.68,5.58c0.05,1.13,0.5,2.03,1.27,2.52
				C16.02,33.92,16.3,34,16.59,34c0.71,0,1.49-0.48,2.39-1.03c0.12-0.07,0.26-0.17,0.42-0.28c0.74-0.51,1.87-1.28,3.07-1.28
				c1.3,0,2.69,0.95,3.44,1.45l0.23,0.16c0.84,0.55,1.62,1.07,2.32,1.07c0.26,0,0.52-0.07,0.76-0.21c0.9-0.51,1.49-1.16,1.42-2.67
				C30.57,29.65,28.92,23.32,22.58,23.32z"/>
			<path class="st2" d="M18.54,21.3c0.12,0,0.24-0.01,0.35-0.02c1.95-0.27,3.24-2.69,2.86-5.39c-0.34-2.49-2.04-4.43-3.86-4.43
				c-0.12,0-0.24,0.01-0.35,0.02c-0.92,0.13-1.72,0.74-2.27,1.73c-0.57,1.03-0.78,2.33-0.59,3.66C15.02,19.36,16.71,21.3,18.54,21.3
				z"/>
			<path class="st2" d="M11.55,19.49c-0.17,0-0.35,0.02-0.52,0.07c-1.48,0.38-2.23,2.27-1.71,4.31c0.46,1.78,1.71,3.02,3.05,3.02
				c0.17,0,0.35-0.02,0.52-0.07c1.48-0.38,2.23-2.27,1.71-4.31C14.14,20.73,12.89,19.49,11.55,19.49z"/>
			<path class="st2" d="M26.72,21.28c1.96,0.27,3.85-1.76,4.22-4.41c0.18-1.33-0.03-2.63-0.59-3.66c-0.54-0.99-1.35-1.6-2.27-1.73
				c-0.12-0.02-0.24-0.02-0.35-0.02c-1.82,0-3.52,1.95-3.86,4.43C23.48,18.59,24.77,21.01,26.72,21.28z"/>
			<path class="st2" d="M34.58,19.55c-0.17-0.04-0.34-0.07-0.52-0.07c-1.34,0-2.59,1.24-3.05,3.02c-0.52,2.04,0.23,3.93,1.71,4.31
				c0.17,0.04,0.34,0.07,0.52,0.07c1.34,0,2.59-1.24,3.05-3.02C36.81,21.82,36.06,19.93,34.58,19.55z"/>
		</g>
	</g>
</g>
</svg>
