<?xml version="1.0" encoding="utf-8"?>
<!-- Generator: Adobe Illustrator 24.1.3, SVG Export Plug-In . SVG Version: 6.00 Build 0)  -->
<svg version="1.1" id="Calque_1" xmlns="http://www.w3.org/2000/svg" xmlns:xlink="http://www.w3.org/1999/xlink" x="0px" y="0px"
	 viewBox="0 0 45.61 45.61" style="enable-background:new 0 0 45.61 45.61;" xml:space="preserve">
<style type="text/css">
	.st0{fill:#FAFAFA;}
	.st1{fill:#333332;}
	.st2{fill:#52B793;}
</style>
<circle class="st0" cx="22.9" cy="22.78" r="22.3"/>
<g>
	<path class="st2" d="M37.26,18.61l-14.2-5.01c-0.19-0.07-0.4-0.07-0.59,0l-14.2,5.01c-0.35,0.12-0.59,0.46-0.59,0.83
		c0,0.37,0.24,0.71,0.59,0.83l14.2,5.05c0.1,0.03,0.2,0.05,0.3,0.05c0.1,0,0.2-0.02,0.3-0.05l14.2-5.05
		c0.35-0.13,0.59-0.46,0.59-0.83C37.85,19.07,37.61,18.74,37.26,18.61z"/>
	<path class="st2" d="M35.55,28.82V22.7l-1.4,0.5v5.63c-0.42,0.24-0.71,0.7-0.71,1.22c0,0.52,0.29,0.98,0.71,1.22v3.45
		c0,0.39,0.31,0.7,0.7,0.7c0.39,0,0.7-0.31,0.7-0.7v-3.45c0.42-0.24,0.71-0.7,0.71-1.22C36.25,29.52,35.97,29.07,35.55,28.82z"/>
	<path class="st2" d="M22.77,27.14c-0.3,0-0.6-0.05-0.89-0.15l-7.98-2.84v3.89c0,0.95,0.99,1.76,2.95,2.39
		c1.71,0.55,3.81,0.86,5.92,0.86s4.21-0.31,5.92-0.86c1.96-0.64,2.95-1.44,2.95-2.39v-3.89l-7.98,2.84
		C23.37,27.09,23.07,27.14,22.77,27.14z"/>
</g>
</svg>
