<svg id="Calque_1" data-name="Calque 1" xmlns="http://www.w3.org/2000/svg" viewBox="0 0 542.14 267.22"><defs><style>.cls-1{fill:#e2e2e1;}</style></defs><path class="cls-1" d="M464.7,103c-.53.09.05.63-.58.89s-.57.72-.26.89.09.76,0,1.16.4.09.76-.31.72.19.8-.18-.94-.67-.89-1.11.71.13,1.24-.14a2.43,2.43,0,0,1,2.27.54c.67.58.85.36,1-.36s1.16-1,2.18-1,1.11-.49.8-.71,1.69-1.52,1.65-1.87-1.07.8-1.38.4-.85.22-1.51.35-2.76-1.6-3.3-2.4-1.42-.13-1,.45-.09.75-.09,1.55-.53.8-.44,1.34S465.24,102.87,464.7,103Z"/><path class="cls-1" d="M464.7,103c-.53.09.05.63-.58.89s-.57.72-.26.89.09.76,0,1.16.4.09.76-.31.72.19.8-.18-.94-.67-.89-1.11.71.13,1.24-.14a2.43,2.43,0,0,1,2.27.54c.67.58.85.36,1-.36s1.16-1,2.18-1,1.11-.49.8-.71,1.69-1.52,1.65-1.87-1.07.8-1.38.4-.85.22-1.51.35-2.76-1.6-3.3-2.4-1.42-.13-1,.45-.09.75-.09,1.55-.53.8-.44,1.34S465.24,102.87,464.7,103Z"/><path class="cls-1" d="M456.78,116.31c.05-.4-.8-.17-1.82.23s-1.65-.45-2.23.13a6.22,6.22,0,0,1-2.31,1.74c-.76.13-.32,1,0,.89.53-.27,1.38,0,1.65-.41s2.44-.89,3.78-.93.53.62.62,1.34,1.2.57,1.78-.09,1-.63.53-1,.09-.75.45-.22a1.22,1.22,0,0,0,1.91-.13c.45-.72.58.13,1.12.08s.84-1.37.89-.88.89.35,1.42-.23.05-1.6.4-2.13a2.68,2.68,0,0,0,.36-2.32c-.36-.66.8-1.11,1.38-1.64s-.67-3.21-.72-4-1.46.31-1.91.53-.76,1.61-.27,2-.8,1.15-.75,2-.8.85-.94,1.47-.62.49-1.38,1.07-1.15-.09-1-.49-1.15.22-1.11,1.2-1.24,1.07-.93,1.51S456.74,116.71,456.78,116.31Z"/><path class="cls-1" d="M456.78,116.31c.05-.4-.8-.17-1.82.23s-1.65-.45-2.23.13a6.22,6.22,0,0,1-2.31,1.74c-.76.13-.32,1,0,.89.53-.27,1.38,0,1.65-.41s2.44-.89,3.78-.93.53.62.62,1.34,1.2.57,1.78-.09,1-.63.53-1,.09-.75.45-.22a1.22,1.22,0,0,0,1.91-.13c.45-.72.58.13,1.12.08s.84-1.37.89-.88.89.35,1.42-.23.05-1.6.4-2.13a2.68,2.68,0,0,0,.36-2.32c-.36-.66.8-1.11,1.38-1.64s-.67-3.21-.72-4-1.46.31-1.91.53-.76,1.61-.27,2-.8,1.15-.75,2-.8.85-.94,1.47-.62.49-1.38,1.07-1.15-.09-1-.49-1.15.22-1.11,1.2-1.24,1.07-.93,1.51S456.74,116.71,456.78,116.31Z"/><path class="cls-1" d="M448.82,120.1c-.67.49-.89.57-.63,1.06s.67,0,.85-.44.62.71.22,1.51.05,1.93.58,1.83,1-1.69,1.69-2.54-.31-.54-.31-1-1-.36-1-.76S449.48,119.61,448.82,120.1Z"/><path class="cls-1" d="M448.82,120.1c-.67.49-.89.57-.63,1.06s.67,0,.85-.44.62.71.22,1.51.05,1.93.58,1.83,1-1.69,1.69-2.54-.31-.54-.31-1-1-.36-1-.76S449.48,119.61,448.82,120.1Z"/><path class="cls-1" d="M453.49,120.81a.93.93,0,0,1,1.29-.49c.45.22,1-.67,1-1.34s-1.33-.66-1.51-.17-.71.26-1.42.4-.74,1.83-.23,2S453.36,121.34,453.49,120.81Z"/><path class="cls-1" d="M453.49,120.81a.93.93,0,0,1,1.29-.49c.45.22,1-.67,1-1.34s-1.33-.66-1.51-.17-.71.26-1.42.4-.74,1.83-.23,2S453.36,121.34,453.49,120.81Z"/><path class="cls-1" d="M418.91,144c0-.54.92-1.38.8-1.78s-1.29-.13-1.87-.13-2,.84-1.46,2S418.87,144.48,418.91,144Z"/><path class="cls-1" d="M418.91,144c0-.54.92-1.38.8-1.78s-1.29-.13-1.87-.13-2,.84-1.46,2S418.87,144.48,418.91,144Z"/><path class="cls-1" d="M434.53,138.56c.45-.31,2.27-4.13,1.87-4.67s-2.18.31-2.67,2.09S434.38,138.67,434.53,138.56Z"/><path class="cls-1" d="M434.53,138.56c.45-.31,2.27-4.13,1.87-4.67s-2.18.31-2.67,2.09S434.38,138.67,434.53,138.56Z"/><path class="cls-1" d="M436.4,154.67c-.67.14-.43,2.15.09,2.05.22,0,.76,0,.8-.45s.53.81.13,1.21-.4,1.51.23,1.64,1.78-2,1.6-2.4-.71.27-.58-.27S437.07,154.54,436.4,154.67Z"/><path class="cls-1" d="M436.4,154.67c-.67.14-.43,2.15.09,2.05.22,0,.76,0,.8-.45s.53.81.13,1.21-.4,1.51.23,1.64,1.78-2,1.6-2.4-.71.27-.58-.27S437.07,154.54,436.4,154.67Z"/><path class="cls-1" d="M441.74,158.5c.4.67-.76.13-.85.8s-.93.13-.88.67-.89,0-1.34-.31-1.07.84-1.74,1-1,1.6-.57,1.56.8-.76,1.33-.71.36-.54,1.11-.4.23,2.4,1.25,2.58,1.07.8,1.56.8-.09-1.43-.05-1.91,1.07,0,1.6-.67-.35-2.27-.35-3.34S441.34,157.83,441.74,158.5Z"/><path class="cls-1" d="M441.74,158.5c.4.67-.76.13-.85.8s-.93.13-.88.67-.89,0-1.34-.31-1.07.84-1.74,1-1,1.6-.57,1.56.8-.76,1.33-.71.36-.54,1.11-.4.23,2.4,1.25,2.58,1.07.8,1.56.8-.09-1.43-.05-1.91,1.07,0,1.6-.67-.35-2.27-.35-3.34S441.34,157.83,441.74,158.5Z"/><path class="cls-1" d="M434,152.4c.13.63.44,1.92,1.42,1.61S433.9,152,434,152.4Z"/><path class="cls-1" d="M434,152.4c.13.63.44,1.92,1.42,1.61S433.9,152,434,152.4Z"/><path class="cls-1" d="M440.27,157.74c-.35-.44-1.24.38-1.11.72S440.63,158.19,440.27,157.74Z"/><path class="cls-1" d="M440.27,157.74c-.35-.44-1.24.38-1.11.72S440.63,158.19,440.27,157.74Z"/><path class="cls-1" d="M433.15,147.87c-.13.39.05,2,.4,2s.63.45.4,1.16.67.8,1.52.49.53.58,1.38.44,2,.94,1.82,1.34,0,1.69.45,1.33,1,.09.62.67.62,1.16.75,1.87.58.13.49-.4.09-.49.67-.89,0-1.07-.4-1.83-1.69-.49-1.69-1.2-1-.93-1-1.33-1.34-.8-2.09-.36-.23-.8-.76-1.38.4-1.42,1-2.13-.18-1.92-.09-2.45.05-.71-.26-.53-1.61-.54-2.18-.18-.05,3.29-.32,3.51S433.25,147.57,433.15,147.87Z"/><path class="cls-1" d="M433.15,147.87c-.13.39.05,2,.4,2s.63.45.4,1.16.67.8,1.52.49.53.58,1.38.44,2,.94,1.82,1.34,0,1.69.45,1.33,1,.09.62.67.62,1.16.75,1.87.58.13.49-.4.09-.49.67-.89,0-1.07-.4-1.83-1.69-.49-1.69-1.2-1-.93-1-1.33-1.34-.8-2.09-.36-.23-.8-.76-1.38.4-1.42,1-2.13-.18-1.92-.09-2.45.05-.71-.26-.53-1.61-.54-2.18-.18-.05,3.29-.32,3.51S433.25,147.57,433.15,147.87Z"/><path class="cls-1" d="M431.24,157.57c-.62.8-2.11,2.13-1.92,2.49s1.92-2,2.72-2.54a1.07,1.07,0,0,0,.4-1.6C432.17,155.39,431.86,156.76,431.24,157.57Z"/><path class="cls-1" d="M431.24,157.57c-.62.8-2.11,2.13-1.92,2.49s1.92-2,2.72-2.54a1.07,1.07,0,0,0,.4-1.6C432.17,155.39,431.86,156.76,431.24,157.57Z"/><path class="cls-1" d="M482.41,178.66c.9.85.42,1.56.94,1.42.84-.22.22-1.06-.49-1.51S481.53,177.81,482.41,178.66Z"/><path class="cls-1" d="M482.41,178.66c.9.85.42,1.56.94,1.42.84-.22.22-1.06-.49-1.51S481.53,177.81,482.41,178.66Z"/><path class="cls-1" d="M474.8,183.2c.81,0,.94-.4.32-1s-2.9-.8-3-1.65-4.13-2.85-5.91-3.25a11.3,11.3,0,0,1-1.12-.32c-1.92-.65-4.61-1.85-5.16-1.81s-.75,1.2-1.33,1.2-1.38,1.2-2.45,1.56-1.11-3.07-1.6-3.74-3.16-1.2-3.43-.45-1.19.36-1.29,1,.22.4.8.4.58.45.85,1,1.87.18,2.4.13.62.71-.13.45-.76.35-1.29.22-1.25-.09-.89.22.93.62.93,1.34,1,.57,1,0,.54.17,1.56.44.31.67,1.34.71a10.71,10.71,0,0,1,4.22,1.47c.9.67.27,1.11.85,1.74s.76,1.33-.05,1.33-1.64.8-1.42,1.2,2.85-.18,3.47-.18c.41,0,.82.73,1.6,1.26a3.14,3.14,0,0,0,1.61.53c2,.08,1.46-1,1.82-1s.49-.62.89-1.11,2.14-.09,3.16.71,2.22,3.16,3.29,2.94,2.18.62,3.16.58.09-.8-.22-.94-1.11-.66-1.07-1-.89-.31-1.51-.71-.4-1.69-1.07-2S474,183.15,474.8,183.2Z"/><path class="cls-1" d="M474.8,183.2c.81,0,.94-.4.32-1s-2.9-.8-3-1.65-4.13-2.85-5.91-3.25a11.3,11.3,0,0,1-1.12-.32c-1.92-.65-4.61-1.85-5.16-1.81s-.75,1.2-1.33,1.2-1.38,1.2-2.45,1.56-1.11-3.07-1.6-3.74-3.16-1.2-3.43-.45-1.19.36-1.29,1,.22.4.8.4.58.45.85,1,1.87.18,2.4.13.62.71-.13.45-.76.35-1.29.22-1.25-.09-.89.22.93.62.93,1.34,1,.57,1,0,.54.17,1.56.44.31.67,1.34.71a10.71,10.71,0,0,1,4.22,1.47c.9.67.27,1.11.85,1.74s.76,1.33-.05,1.33-1.64.8-1.42,1.2,2.85-.18,3.47-.18c.41,0,.82.73,1.6,1.26a3.14,3.14,0,0,0,1.61.53c2,.08,1.46-1,1.82-1s.49-.62.89-1.11,2.14-.09,3.16.71,2.22,3.16,3.29,2.94,2.18.62,3.16.58.09-.8-.22-.94-1.11-.66-1.07-1-.89-.31-1.51-.71-.4-1.69-1.07-2S474,183.15,474.8,183.2Z"/><path class="cls-1" d="M481.35,180.26c0,.4-.71.63-1.83,1.07s-3.13-.51-3.2.13c0,.4,1.24,1.12,2.45,1.12s3.11-1.21,3.11-1.56.76-1,.45-1.34S481.35,179.86,481.35,180.26Z"/><path class="cls-1" d="M481.35,180.26c0,.4-.71.63-1.83,1.07s-3.13-.51-3.2.13c0,.4,1.24,1.12,2.45,1.12s3.11-1.21,3.11-1.56.76-1,.45-1.34S481.35,179.86,481.35,180.26Z"/><path class="cls-1" d="M496.3,188.77c.07.17.93,1,1.37.67S496.18,188.49,496.3,188.77Z"/><path class="cls-1" d="M496.3,188.77c.07.17.93,1,1.37.67S496.18,188.49,496.3,188.77Z"/><path class="cls-1" d="M488.82,183.2c0,.17,1,1.2,1.27,1S488.88,182.9,488.82,183.2Z"/><path class="cls-1" d="M488.82,183.2c0,.17,1,1.2,1.27,1S488.88,182.9,488.82,183.2Z"/><path class="cls-1" d="M493.83,185.87c.37-.23-2.07-1.57-2.1-1.14S493.46,186.1,493.83,185.87Z"/><path class="cls-1" d="M493.83,185.87c.37-.23-2.07-1.57-2.1-1.14S493.46,186.1,493.83,185.87Z"/><path class="cls-1" d="M493.56,187.3a1.29,1.29,0,0,0,1.54.84C495.5,187.9,493.42,186.61,493.56,187.3Z"/><path class="cls-1" d="M493.56,187.3a1.29,1.29,0,0,0,1.54.84C495.5,187.9,493.42,186.61,493.56,187.3Z"/><path class="cls-1" d="M495.13,185.8c-.33.74,1,2,1.2,2S495.39,185.24,495.13,185.8Z"/><path class="cls-1" d="M495.13,185.8c-.33.74,1,2,1.2,2S495.39,185.24,495.13,185.8Z"/><path class="cls-1" d="M486,181.33c-.09.4,1.33,2.52,1.86,2.18C488.82,182.89,486.06,180.93,486,181.33Z"/><path class="cls-1" d="M486,181.33c-.09.4,1.33,2.52,1.86,2.18C488.82,182.89,486.06,180.93,486,181.33Z"/><path class="cls-1" d="M448.6,190.91c.34.27,2-.07,1.94-.47S448.1,190.5,448.6,190.91Z"/><path class="cls-1" d="M448.6,190.91c.34.27,2-.07,1.94-.47S448.1,190.5,448.6,190.91Z"/><path class="cls-1" d="M340.81,9.15c1.07,0,.76-.66,1.47-.57s1.65,0,1.29-.4-2.94-.27-2.67.08-2.09.23-2,.36S339.74,9.15,340.81,9.15Z"/><path class="cls-1" d="M340.81,9.15c1.07,0,.76-.66,1.47-.57s1.65,0,1.29-.4-2.94-.27-2.67.08-2.09.23-2,.36S339.74,9.15,340.81,9.15Z"/><path class="cls-1" d="M351.89,10.49c1.69-.18,1.65-1.11.76-1.29s-1,.53-1.47.49-2.13.28-1.78.67S351.05,10.58,351.89,10.49Z"/><path class="cls-1" d="M351.89,10.49c1.69-.18,1.65-1.11.76-1.29s-1,.53-1.47.49-2.13.28-1.78.67S351.05,10.58,351.89,10.49Z"/><path class="cls-1" d="M348.64,10.71c.32-.4-.58-.4-.66-.8s-2.58-.49-2.45,0-1.72.93-1.16,1.38C345.44,12.09,348.33,11.11,348.64,10.71Z"/><path class="cls-1" d="M348.64,10.71c.32-.4-.58-.4-.66-.8s-2.58-.49-2.45,0-1.72.93-1.16,1.38C345.44,12.09,348.33,11.11,348.64,10.71Z"/><path class="cls-1" d="M341,11.56c.14.35-.22.4-1.11.4s-1.35.5-.89.89,2.89.26,3.3-.27,1.42-.09,1.6-.62S340.9,11.2,341,11.56Z"/><path class="cls-1" d="M341,11.56c.14.35-.22.4-1.11.4s-1.35.5-.89.89,2.89.26,3.3-.27,1.42-.09,1.6-.62S340.9,11.2,341,11.56Z"/><path class="cls-1" d="M341.57,10c.13-.93-1.42-.18-2.58-.67s-1.84-.45-1.07.23c.36.31-2,.55-1.6.93C337.16,11.34,341.43,10.94,341.57,10Z"/><path class="cls-1" d="M341.57,10c.13-.93-1.42-.18-2.58-.67s-1.84-.45-1.07.23c.36.31-2,.55-1.6.93C337.16,11.34,341.43,10.94,341.57,10Z"/><path class="cls-1" d="M329,10.67c.62.44-1.74.31-2,.75s-1.68.29-1.42.81,2.49.57,2.49.13,1.16,0,1.2-.45.54-.84,1.78-.93,1.25-.54.09-1.07S328.4,10.22,329,10.67Z"/><path class="cls-1" d="M329,10.67c.62.44-1.74.31-2,.75s-1.68.29-1.42.81,2.49.57,2.49.13,1.16,0,1.2-.45.54-.84,1.78-.93,1.25-.54.09-1.07S328.4,10.22,329,10.67Z"/><path class="cls-1" d="M335.29,12.14c0-.72-2.31.07-1.87.22S335.29,12.85,335.29,12.14Z"/><path class="cls-1" d="M335.29,12.14c0-.72-2.31.07-1.87.22S335.29,12.85,335.29,12.14Z"/><path class="cls-1" d="M324.84,11.07c1-.94,2.35-.05,2.53-.49s-1.91-.58-2.67-.18-2.53.08-2.31.58A1.74,1.74,0,0,0,324.84,11.07Z"/><path class="cls-1" d="M324.84,11.07c1-.94,2.35-.05,2.53-.49s-1.91-.58-2.67-.18-2.53.08-2.31.58A1.74,1.74,0,0,0,324.84,11.07Z"/><path class="cls-1" d="M467.28,87.48c.36.8-.48,5.07-.13,5.78s-.58,3.86-.27,4.23c.54.62.18-.85,1-1s.8.89,1.29,1.11.18-1.42-.26-1.33-.8-1.07-1-1.78.45-1.56.45-2.45,1.11-.85,1.78-.18.75.22.49-.27-1.12-4-1.6-5.34.71-2.53-.18-3.2-.54-2-1-1.78,0,1.47-.71,1.56-.05.75-.31,1.65A5,5,0,0,0,467.28,87.48Z"/><path class="cls-1" d="M467.28,87.48c.36.8-.48,5.07-.13,5.78s-.58,3.86-.27,4.23c.54.62.18-.85,1-1s.8.89,1.29,1.11.18-1.42-.26-1.33-.8-1.07-1-1.78.45-1.56.45-2.45,1.11-.85,1.78-.18.75.22.49-.27-1.12-4-1.6-5.34.71-2.53-.18-3.2-.54-2-1-1.78,0,1.47-.71,1.56-.05.75-.31,1.65A5,5,0,0,0,467.28,87.48Z"/><path class="cls-1" d="M392.21,9.33c.18-.66-2.78-.37-2,.27C390.48,9.82,392,10,392.21,9.33Z"/><path class="cls-1" d="M392.21,9.33c.18-.66-2.78-.37-2,.27C390.48,9.82,392,10,392.21,9.33Z"/><path class="cls-1" d="M395.73,13.74c0,.49-1.44,1-1,1.33s.67.23,1.12.31.66,1.21,1.46,1,3,.89,4.28.89,1.42-1.07,1-1.11,0-.67.67-1.7-2.23-1.78-2.23-1-.84-.18-1.11-.67S395.73,13.25,395.73,13.74Z"/><path class="cls-1" d="M395.73,13.74c0,.49-1.44,1-1,1.33s.67.23,1.12.31.66,1.21,1.46,1,3,.89,4.28.89,1.42-1.07,1-1.11,0-.67.67-1.7-2.23-1.78-2.23-1-.84-.18-1.11-.67S395.73,13.25,395.73,13.74Z"/><path class="cls-1" d="M393.37,12.49c.84.36.53.58-.36.58s-1.65.3-1.07.54.4.66,1.34.88,1.87-.53,1.78-1.06,3.25-1,4.14-1.25-.58-1.16.4-1.24.58-.54-.63-.72-.71-1.2-1.11-1.55-.62.44-2.18.75-2.31.71-1.69,1,0,1.07-.67,1S392.52,12.14,393.37,12.49Z"/><path class="cls-1" d="M393.37,12.49c.84.36.53.58-.36.58s-1.65.3-1.07.54.4.66,1.34.88,1.87-.53,1.78-1.06,3.25-1,4.14-1.25-.58-1.16.4-1.24.58-.54-.63-.72-.71-1.2-1.11-1.55-.62.44-2.18.75-2.31.71-1.69,1,0,1.07-.67,1S392.52,12.14,393.37,12.49Z"/><path class="cls-1" d="M402.62,20c.63.36,2.63-.44,4-.4s5.08-1,5.21-1.73-1.38-.67-2-1.29-1.87-.09-2.18.44-.66,0,.18-.8-.84-1.51-.89-1-1.6.09-1.6.58-.58.71-.53,1.2-1.07-.27-1.12.85S402,19.64,402.62,20Z"/><path class="cls-1" d="M402.62,20c.63.36,2.63-.44,4-.4s5.08-1,5.21-1.73-1.38-.67-2-1.29-1.87-.09-2.18.44-.66,0,.18-.8-.84-1.51-.89-1-1.6.09-1.6.58-.58.71-.53,1.2-1.07-.27-1.12.85S402,19.64,402.62,20Z"/><path class="cls-1" d="M438.36,185.82c.8,0,1.69-.26.49-.44s-2,.71-3.21.27-3,0-2.8.4,1.25.4,2.45.44S437.56,185.87,438.36,185.82Z"/><path class="cls-1" d="M438.36,185.82c.8,0,1.69-.26.49-.44s-2,.71-3.21.27-3,0-2.8.4,1.25.4,2.45.44S437.56,185.87,438.36,185.82Z"/><path class="cls-1" d="M438.76,188.54c.57.3,1.41-.51,1.89-1.08.08-.09.14-.18.2-.26a.67.67,0,0,1,.15-.13l.15-.1c.86-.51,3.06-1.15,3.17-1.46s-1.33.09-2.22.05c-.6,0-.85.46-1.29.82l-.13.09a1.44,1.44,0,0,1-.49.2l-.07,0-.14,0-.35.06-.15.06C438.61,187.19,438.16,188.22,438.76,188.54Z"/><path class="cls-1" d="M438.76,188.54c.57.3,1.41-.51,1.89-1.08.08-.09.14-.18.2-.26a.67.67,0,0,1,.15-.13l.15-.1c.86-.51,3.06-1.15,3.17-1.46s-1.33.09-2.22.05c-.6,0-.85.46-1.29.82l-.13.09a1.44,1.44,0,0,1-.49.2l-.07,0-.14,0-.35.06-.15.06C438.61,187.19,438.16,188.22,438.76,188.54Z"/><path class="cls-1" d="M445.66,170.78c0-.31-.31-1.55-1-.58s.23,3.4.8,3.3-.4-1.29.58-1.2.54-.49.54-1.12S445.66,171.09,445.66,170.78Z"/><path class="cls-1" d="M445.66,170.78c0-.31-.31-1.55-1-.58s.23,3.4.8,3.3-.4-1.29.58-1.2.54-.49.54-1.12S445.66,171.09,445.66,170.78Z"/><path class="cls-1" d="M432.62,173.85c-.4.23-.4,1.61-1.2,2.9s.26,1.46.93,1.51.58,1,.45,1.6-.41,1.95.18,1.74,1.15-1.16.75-1.47-.35-2.27-.18-2.76,1.38-.13,1,.62.76.67.76,1.52.67.4,1.38.17.58-.62.09-1.15.35-1.29-.31-1.74-1.12-1.11-.49-1.25,2.49-1.2,2.27-1.64-2.85.09-3.08.89-2.09-.09-1.86-1.47,3.91-1.6,5-1.11,2.22-.8,2.62-1.56-.84.13-1.6.62-2.76,0-3.78-.4-1,.62-1.82.76S433,173.63,432.62,173.85Z"/><path class="cls-1" d="M432.62,173.85c-.4.23-.4,1.61-1.2,2.9s.26,1.46.93,1.51.58,1,.45,1.6-.41,1.95.18,1.74,1.15-1.16.75-1.47-.35-2.27-.18-2.76,1.38-.13,1,.62.76.67.76,1.52.67.4,1.38.17.58-.62.09-1.15.35-1.29-.31-1.74-1.12-1.11-.49-1.25,2.49-1.2,2.27-1.64-2.85.09-3.08.89-2.09-.09-1.86-1.47,3.91-1.6,5-1.11,2.22-.8,2.62-1.56-.84.13-1.6.62-2.76,0-3.78-.4-1,.62-1.82.76S433,173.63,432.62,173.85Z"/><path class="cls-1" d="M445.43,177.77c.18.53,1.12.31,2.05.31s1.42.67,1.92.67.13-1.16-1-1.51S445.24,177.18,445.43,177.77Z"/><path class="cls-1" d="M445.43,177.77c.18.53,1.12.31,2.05.31s1.42.67,1.92.67.13-1.16-1-1.51S445.24,177.18,445.43,177.77Z"/><path class="cls-1" d="M442.36,177.86c.18.71,1.47,1.11,1.83.49S442.16,177,442.36,177.86Z"/><path class="cls-1" d="M442.36,177.86c.18.71,1.47,1.11,1.83.49S442.16,177,442.36,177.86Z"/><path class="cls-1" d="M429.41,185.29c-.17.4-.93.49-1.37.18s-1,.42-.72.8a1.93,1.93,0,0,0,2.18.36c1.12-.54,1.87,0,2.14-.63S429.59,184.89,429.41,185.29Z"/><path class="cls-1" d="M429.41,185.29c-.17.4-.93.49-1.37.18s-1,.42-.72.8a1.93,1.93,0,0,0,2.18.36c1.12-.54,1.87,0,2.14-.63S429.59,184.89,429.41,185.29Z"/><path class="cls-1" d="M412,179.42a9.42,9.42,0,0,1,.23-1.56c0-.31.22-.45.62-.36s.36-.84,0-.93-.48-1.2-1.24-1.2-.63.62-.18.66.71.41.58.72-.31-.31-.94-.27-.22-.76-.93-.8-.58-1.34-1.34-1.34-.8-.62-.31-1.06-.75-.85-.75-1.38-.8-.23-.8-.67-.36-.22-.76-.76-.58,0-.94-.44-.84-.63-1.15-.49-1-.58-1.29-1.29-2.27-1.52-2.54-2.27-1-1.07-2.18-1-1.68-1.17-2-.58c-.35.76,1.29,2.45,2.05,2.9s1.16,2,2,2.13,1,2.9,1.64,3,2.1,2.31,2.32,3.47,1.69,1.74,2.18,2.58,2.44,2,2.71,2.36.54,1.16.76.76,1.15,0,1.6,0S412.06,180,412,179.42Z"/><path class="cls-1" d="M412,179.42a9.42,9.42,0,0,1,.23-1.56c0-.31.22-.45.62-.36s.36-.84,0-.93-.48-1.2-1.24-1.2-.63.62-.18.66.71.41.58.72-.31-.31-.94-.27-.22-.76-.93-.8-.58-1.34-1.34-1.34-.8-.62-.31-1.06-.75-.85-.75-1.38-.8-.23-.8-.67-.36-.22-.76-.76-.58,0-.94-.44-.84-.63-1.15-.49-1-.58-1.29-1.29-2.27-1.52-2.54-2.27-1-1.07-2.18-1-1.68-1.17-2-.58c-.35.76,1.29,2.45,2.05,2.9s1.16,2,2,2.13,1,2.9,1.64,3,2.1,2.31,2.32,3.47,1.69,1.74,2.18,2.58,2.44,2,2.71,2.36.54,1.16.76.76,1.15,0,1.6,0S412.06,180,412,179.42Z"/><path class="cls-1" d="M424.65,185.78c.32-.44.89.71,1.78,0s-1.46-.4-1.51-.93-1.78,0-2.63-.4.94-.67,1.52-1-.36-.48-1.78,0-3.07-1-3.12-.35-2.58-.27-3.2-.72-3-1-3.52-.18-.91.09-.71.9c.13.53.71.22,1.11.22s.22.75.8.84,2.5.63,2.67.23,2,0,2.85.71,2.94.75,3.74.62S424.34,186.22,424.65,185.78Z"/><path class="cls-1" d="M424.65,185.78c.32-.44.89.71,1.78,0s-1.46-.4-1.51-.93-1.78,0-2.63-.4.94-.67,1.52-1-.36-.48-1.78,0-3.07-1-3.12-.35-2.58-.27-3.2-.72-3-1-3.52-.18-.91.09-.71.9c.13.53.71.22,1.11.22s.22.75.8.84,2.5.63,2.67.23,2,0,2.85.71,2.94.75,3.74.62S424.34,186.22,424.65,185.78Z"/><path class="cls-1" d="M433,188.14c.31.26,1.42.84,1.42.09s-3.06-1.21-2.76-.76S432.66,187.87,433,188.14Z"/><path class="cls-1" d="M433,188.14c.31.26,1.42.84,1.42.09s-3.06-1.21-2.76-.76S432.66,187.87,433,188.14Z"/><path class="cls-1" d="M416.33,171.85c.67.62.49,1.6.8,2.09s1.29.58,1.29,1.52.85,2.4,1.43,2,1,.18,1.2.58,1.55-.32,2-.23,1.82.36,1.92.89,1.33,0,2.17-.35.36-2.85,1.16-3.34a2.28,2.28,0,0,0,.89-2.31c-.09-.89,2-.94,2.27-1.29s-.44-.94-1-1.21-.09-.84-.49-1.2-1.07-1.29-.49-1.33-.4-.85.09-1.11l.22-.12c.53-.26,1.28-.6.93-.91s1.21,0,1.38-.58-.62-1-1-.89-1.33.05-1.33-.35-.85-1.16-1.38-1.16-1.16,1.07-1.21,1.51-.89.4-.8,1c0,.24-.12.35-.32.41s-.75.1-.75.34v.39l-1-.56h0c-.36,0-1.16,1.24-1.34,2.09s-1,.57-2.18.66-.71,1.34-1,1.92-1.56-.43-2.23-.56a.52.52,0,0,0-.17,0C416.73,169.8,415.77,171.33,416.33,171.85Z"/><path class="cls-1" d="M416.33,171.85c.67.62.49,1.6.8,2.09s1.29.58,1.29,1.52.85,2.4,1.43,2,1,.18,1.2.58,1.55-.32,2-.23,1.82.36,1.92.89,1.33,0,2.17-.35.36-2.85,1.16-3.34a2.28,2.28,0,0,0,.89-2.31c-.09-.89,2-.94,2.27-1.29s-.44-.94-1-1.21-.09-.84-.49-1.2-1.07-1.29-.49-1.33-.4-.85.09-1.11l.22-.12c.53-.26,1.28-.6.93-.91s1.21,0,1.38-.58-.62-1-1-.89-1.33.05-1.33-.35-.85-1.16-1.38-1.16-1.16,1.07-1.21,1.51-.89.4-.8,1c0,.24-.12.35-.32.41s-.75.1-.75.34v.39l-1-.56h0c-.36,0-1.16,1.24-1.34,2.09s-1,.57-2.18.66-.71,1.34-1,1.92-1.56-.43-2.23-.56a.52.52,0,0,0-.17,0C416.73,169.8,415.77,171.33,416.33,171.85Z"/><polygon class="cls-1" points="327.64 190.9 327.11 191.34 326.88 192.41 325.99 193.08 325.22 193.08 325.24 193.75 325.22 195.33 324.08 195.48 321.99 196.55 320.07 196.91 319.72 197.47 319.45 198.91 319.22 199.7 319.63 201.62 319.96 203.41 319.27 204.69 318.47 206.4 319.67 211.15 321.34 211.97 322.34 211.81 323.9 211.23 327.73 199.04 328 197.35 328 196.09 328.83 196.79 329.29 196.24 329.21 195.43 328.74 193.69 328.61 192.84 328.17 191.62 327.64 190.9"/><polygon class="cls-1" points="374.94 158.06 374.32 161.48 375.08 163.71 377.39 161.57 374.94 158.06"/><polygon class="cls-1" points="422.64 213.1 424.17 216.51 425.08 218.15 425.44 219.34 425.44 220.15 426.78 222.78 426.54 223.85 426.41 225.47 425.95 225.96 425.58 226.02 425.38 226.6 425.98 227.02 427.08 227.99 430.01 228.29 431.12 227.5 432.1 227.26 432.58 226.65 433.79 226.33 437.75 226.36 438.5 226.11 439.03 225.66 439.26 225.25 440.71 224.43 441.98 223.73 444.76 223.53 446.84 222.72 448.56 222.46 450.01 222.31 451.84 223.22 453.61 223.45 454.48 223.88 454.75 225.21 455.92 226.09 456.22 226.76 456.67 228.15 457.52 227.32 458.02 226.86 459.02 226.19 459.44 225.16 459.87 224.8 460.29 224.85 459.25 227.91 458.72 228.16 459.87 228.45 460.29 227.26 460.95 227.59 460.95 228.69 460.75 229.26 461.86 229.19 462.66 229.83 463.1 230.79 463.1 232.44 463.92 233.2 464.99 233.83 467.29 234.31 468.5 234.93 469.74 234.7 470.51 233.19 471 233.56 471.3 234.53 471.7 234.23 472.7 235.13 473.2 235.5 473.25 234.5 474.65 234.18 475.65 233.45 478.44 233.06 478.94 230.03 479.79 228.53 480.39 226.63 481.21 224.3 482.48 223.84 482.48 222.59 483.38 221.35 483.38 218.6 484.1 217.46 483.98 216.57 483.62 215.47 483.62 212.41 483.18 212.67 482.32 211.88 481.66 210.64 481.01 210.37 480.28 209.67 479.77 209.2 479.7 207.69 479.14 207.6 478.28 207.66 477.86 206.11 476.98 205.16 476.84 204.42 473.37 202.39 473 201.35 472.66 200.18 472.51 199.09 471.74 197.95 471.53 196.11 471.25 195.53 470.53 194.91 469.37 194.95 468.87 194.28 468.82 192.41 468.2 191.04 467.46 189.21 466.73 189.58 466.49 190.31 466.13 191.51 466.31 192.91 465.93 193.18 465.84 197.32 465.33 198.15 464.06 199.92 462.74 199.77 461.89 198.72 460.89 198.52 458.94 197.13 457.88 196.81 456.88 195.68 457.32 194.56 457.15 193.68 458.12 192.98 458.62 191.98 458.76 191.47 458.28 191.24 457.72 191.84 457.15 191.04 456.01 191.51 453.08 190.61 451.68 189.74 452.24 190.74 451.6 191.37 450.54 191.49 449.94 191.44 449.51 191.88 447.84 194.34 448.2 196.19 447.14 195.78 446.44 195.41 446.17 195.85 445.43 195.09 444.83 194.81 443.56 193.88 442.7 194.38 442.23 195.08 441.06 195.11 440.8 195.78 440.09 196.28 439.79 197.75 438.69 197.65 439.44 199.17 438.46 199.55 437.86 198.42 437.16 198.56 436.13 199.77 436.62 200.79 435.09 202.27 433.96 203.64 431.78 203.66 430.35 204.13 429.45 204.76 428.14 204.62 427.11 205.19 424.81 206.52 424.44 207.33 424.27 206.4 423.51 207.5 423.57 209.2 422.98 210.38 424.17 213.6 423.71 213.9 422.64 213.1"/><path class="cls-1" d="M539.1,53.53l-1-.9-1.23-.55-.84.06-.69-.35-.84-.23-1.11.2.73,1-.27.68-1.12-.83.1-1.13-.58-.8-1.91-1.26-2.86-1.24-.37-.32-2-.84-.86-.63-2.06-1-2-.46-1-.53H517L515.14,44l-.95.54-3.47-.8-.49,1,1.09,1.71-.47.82H509.3l-1.11-.89-1.14-.7v-.87l1.41.58.25-.85L507,44l-1.78,1.4L501.44,45l-4.54.27-.31,1.4-.68-1.74-1.68-.44,0-.56.25-.4-.53-1-2.54-1.27-3.9,0-2.15.37-2.94,0v-.67l-1-.57-.87,0-.58.22v-.47l-.83-.47-1.06-.15-.16-.49,1.22-.1v-.48l-.91-.45-2.55-.36h-1.39L473.4,39l-.54.35L472,39.3l-.17-.4,1.18-.73-1-.3-.7-.21.42-.45,1.67.19.27-.14-1.94-.54-2.14-.38-2.35-.12-1.47-.43-.33,0v.66l-.55.46-1.33,0-.85.45.29.67.92-.18-.4.8.37.34.1.69-.89.2-.68-.39-1.82.31.83.57-1,.07-.72-.63-2.32-.4-.81.28-1.49.27-1.35-.52-.79-.71-1.23,1.88-1,1.16L448.87,41l-1.3-1.5-.74-1-.64-.54.36-.25.58.53.75-.15.21-.49-1-.7.4-.43-.32-1-.72-.67-.59-.57L444.76,34l-.86.24-.56.47v-.52l-1.71-.46-1.34-1-.71.73-.27,0-.55.45.18,1-.3.84-.73-.21-.7.15-.85.08-1.93-.22-1-.32-1.23.13-.88-.42.62-.71-4.14-.69L424,33.9l-.2.8-.39,0V33l-.49-.13-.17.39-.87.21-.82-.31-1.36-.68-.88,0-.71.39-.29.56.91.25-1.84.53-.33.27-2,.53-1.74.3-1,.62.14-.8.78-.85.88-.16.46-.58,2-.31.43-.49,1.66-.84.19-.48,1.28-.48,1.45-.35.5-.72,2.21-1,.31-.63-.67-.51-.07-.21.83-.06.14-.43-.68-.18-.12-.92-.78.07-.37-1.37-1.1.16-2.39-.62-.14.18L418,24l-.53.12-1.32-.08-.68.12-.3.44-1.3.25-.8-.07,1.3-1.41-1.25-.07-1.22-.1-.32-.16L410.1,23l-.33-.07.94-.22.87-.38.73-.24-.51-.57-.65-.06L409.28,21l-1.71.37-.83.25-.88.88-.43.28-.75.69-.08.51.25.12,0,.52-.13.25-.71,0-1.32,0-1,.33.84.6V26l-1.29-.38-.71.1-.31.28-.46.27-.52-.07-.76.09-.35-.15.55-.52-.19-.28-1,.21-.4.37-.81-.28-1.22.54-.68-.05-.53.13.91.63-2.34.29-.37.24-2.13.18-.57.46-.61.19-1,.31-.64.53-.71-.16-.43-.08-.26.15.26.25-.11.26h-.52l-.32.36.36.09,0,.44-.21.07-.58-.13h-.5l.28.37.54.09.52.19.15.32-1.14.07.74.44.11.16.53.48-.4.57-.13.25-.29-.12-.95-.24-.9.54-.48,0H381.1l-2.59.29-2,.28-.39.8.44.85-.2.7,1.36.92,1,.25.58.5.09.74-.49.34-1.44-.52-1.2-.78-1.72-.5L373,37.13l-.42-.44h-.81l-.75.6.92.16-.09.37,1,.37.19.36-1.58-.24-.74-.19-.89.53,1,1.21,1.71.55.36.36.55.38-.49.26-2.08-1-1.65,0-.56-.15v-.82l-.43-.47.6-1,.23-.93-.52-1h-.71l.12.71-.44,1.33-1.7.77-.26.45-.48.43,1.6,2,.12.58-.87,1.87.06.7v1.15l1.23,0,1.75-.43,1.42.53,1.62.83.4,1.19-.69.69,0,.49,1.65.9-1.69-.13-.69-1,.22-1.49-1.55-1.18-2.32.62.32,2.35-1.34,1.35v.51l-2.1,1.26-.54.92-1.35-.39-1.53.21-.9-.41-.64.07-.63-.21.27-.76.38,0,.63.51.83-.38.66.57.43-.34h.74l-.14-.55.78-.32.16-.68.3-.12.17-.47,1-.51.34-.4-.13-.58.25-.78.42-.3-1.32-1.31L364.1,45l.24-.83-.22-1.06.52-1.29-.09-.58L363.27,40l-.15-.29,1-.87.3-.72.17-1.7-1.73-.63-1.69,0-1.6-.08-1.94,3.61-1.9,1.06-.41.68.37.64h.54l-.18,1.2-.09.71-.43.44-.08.59,1.93.78L358,46.6l.79.34-.13.94-.81.55L356,47l-1.07-.48-2-.82-1.34-.57-1.66-.67-4.13-.37-.56-.61-1.4-.71-.85.08.05.81.76.38.45.33,1.23.24.25,1,.7.92-.12.53-.84.15-.6.16V48l-.51.08-.74-.34.43-.64-1.19-.66-2,1.13-1.56-.08-1.24.17-1.14.93h-1.24l-1-.32-.09-.23,1.12-.1-.25-.55.49-.81-2,.6-.29.84-.19,0-.48-.42-3.05.75-.64.49-1.11.53-.23.3-1.51.36-.29,1.4-.84.48-2,0-.67-.85-.53-.39-.1-.78.58-.29,1-.36,1.11.16-.76-1.1-.29-.61-.64-.28h-1.14l-.89.06-1.21-.29-.07.16.94.68,0,1.39L319.89,51l.85.09.22.22.11.68,0,.69-.3.5-.24.51L320,53.5h-.21l-.23-.45-1-.24-1-.06-.77.73-1.36.44-.77.62-.63.6,0,.45.69.91.31.84-1,.25-.85-.36-.54-.27-1-.09-.55-.27-1.16-.75-.92.84.45.87.67.44,1,.19L311,59l-.79.31-.56-.25-1-.24-.14-.3-.4-.32-.84-.16-.69-.24-.09-.82-.25-.6L306,55.3l.42-.44-.6-1.38L304.7,53l-.4-.35-.83-.48-.64-.74-.53-.49,1.87.87,1.59.38,1.52.52,2.37.55,2.39.32,2.19-.61,2-1.38v-.76l-.33-1-.78-.48-.87-.7-.73-.15-.69-.57-.64-.08-3.54-2-1.74-.44-.5.13-.59-.43-1.06.26-.83-.19-.94,0-.33-.38,1.27-.4-1.68-.58-.52.71-1.85-.56-.62.36-.38-.53-.8-.65,1,.26.83-.49.92-.25-.92-.9-1.39-.25-.67-.44-1.22,1.29-.17-1,.45-.24-.08-.46-1.09-.25-.56.47.05.48-.92,1-.11-1.49L291.93,43l-.31-.5.8-.9.75-.72.24-.29-.41-.28-.83.66-1.07-.13-.26.58.07.22-.21.18-.59-.35-1,1.11.16.49-.31.37-.4-.59.06-.65.56-.6.33-.49-.41-.11-.45.48h-.9l-.32.13-.06.29.7.9h-.65l-1.13,0,.84.76-.71-.09-.42,0-.38-.45-.64.1.53.53-.15.86-.37-.25-.19-.57-.67.22-.31-1-1.32.37.17.92-.66.09-.28.61-.71-.39-.65.32-.78,1,1-.07.2.54.12.4h-.26l-.5-.24-.28.33-.87-.45-.62.45.36-1.25-1.17.93-.68.52-.8,1-1.29.61-.56.56,3.25-1.39.38.14.51-.28.42-.27.52.21-.14.8.08.24h-.5l-.38-.41-.5.5-.73.44-.3.9-.56.46-.42.83-1.22,1.41v.39l-.15.58h-1l-.07,1.09-.27.54.14.77-.94.13-.16.19-.88.15.84.93-.23.37-.23-.17-1.69.81-.28.53-.6.32-.44,1-.82-.65-.4.18.29.86-.59.14-.55.35-1.2.56.8.41-1.29,0-.8.53-.74.34.14.54-.93,0-.41.66.58.76-.18.56.19.23-.53.55.19.49-.11.91.78.24,1.07-.4.26.47-.78.62-.6-.15-.51.44-.11.89,1.65,0-.38.6-.63.47,1.21,1.1,2.13.61,2.81-2.07,1-.22.38-1.09.6.82.39,1.25.63,1.09.54,1.56.75,1.35.32,1.14.42.69,0,1.27,1.65-.19.09-.73.46-.49.79-.23.94.14.39-.71.53.23,1-1.88-.7.54,0-1,.51-2.73,1.59-.75.35-.83.89-1.22-1.43-1.59-1.06-.28-.18-1.7.55-1.46.4-1.16.72-.69.42-1,2-1,2.31-1.74-.33-.89.75-1.78,1-.78,1-.13h1.39l1.69,1-.22,1.18h-.46l-.8,1.43-1.09.74-1.37.9-.33.62-1,.51L285.81,62l.27.51.15,1.05.38,1.13-.51,2.12,1.4.55.91.49,1.65.36,2.64-.61,2.68-.49,1.48-1.41-.15,1.06,1,1L299,68l-1.17.24-1.73,1-1.18.12-1.44-.27-3.36.57-.91.87.31,1,.39.43,1,.15-.39,1.06-.06,1.37-1.48-.06L288,73.19l-1.45.67-.6,1.2-.37.57.19.93.16,2.28-.49.83-.25.42-.83-.67-.74.67-.83.42-.71-.93-3.29.93-2.34.8-.43.34L275,81l.13-.87-1.34.36-2.3,1.06-.17-.66-1.07-.21L269,78.91l1.84.13-.53-.93-.69-.09.42-.93,1-.52-.71-.71,0-1,.16-1.29-.56,0-.48,1.09h-.94l.07.67-.87-.44-.8,1.61.62,2.5.49,1.38,0,.41.44.88-.72,1-1-.56-1.13.18-.43.46-1.51,0L263,83l-.1.75-.71,0-.31-.16-.38.51-.59.85-.18.75-1.12,1-1.58.6-.53.15L257.08,89l-.25.47-1.6.36-.68,1h-1l-.94-.64-.74-.08-.13.66.34.61-.14,1-1.32-.07-.29.06-.62-.5h-.53l-1.46.18-.41.68.18.93,2,.65.79.21,1,.5.61,1.31,1,.56v1.59l-.26,2.1L252,102.3l-8.25-.34-1.23-.44-.9.71-1.06.36.65,1.32,0,1.33.14,1.13-1.24,3.68.81.75.33,1-.12,1.59,1.15.29,1.2-.23.8.06,1.83,1.73.36-.49.86,0,.62-.33,1.11-.22,2-.09.67-.5,1.62-1.13.11-.74,1.11-1.15-.2-1,.23-1.24,1-1,.56-.92,3.22-1.55,0-1.23.24-1,1-.48,1.9.27,1.45.47,1.46-1,1.35-.54,1.52-.92,1.86,1.23,1.28,2.12,1.73,1.44,2.16,1.23,1.67,1.14,1,.83.46,1.61-.37,1.12.23.77.88-1.51.74-.62-.68-1.18.29-.69.64-.14,1.55.64.1-.39-2-1.6-1.68-1.44-.44,0-1.38-.68-1-1.72-2.12-2.16,0-1.51,1.62-1,.53,1.09,1.16.49,1.33,2.12,1.21.64.48.49,3.43,1.6.53.87-.45,2.24,1.21,1.6.65.49.34,1.21.95,0,1.36.49-1.61.13.32,1.27.14.69,1.05.49,1,.53-.27-1.51,1,0-.69-.6.11-.37.87.21.65-.26.1-.7-.59-.52-.63.07-.62,0,.49-.8-1.22-1.69v-.48l.41-.13.93.49.63-.12,0-.9.62-.32.56.37,1.13-.56,1.9.92,1.4-.87,1.09-.08.32-.72-.52-.31-.89-2.27,1.51-1.62.76-2,.77-.9,2-2.64,1.67-.24.15,1,2.45.35-2,1.12,1.51.68.07,1.16,4.67-1.2-1.51-.4-1.23-1.23,1.9-1.2,4.67-1-1.87,1.09.58.84-2.12,1.87,6.7,4.59.58,1.55-2.37,1.43-9.45-1.73L301,106.08l-3.29.18-.76,1.15-3.47,1.38.63.43.17,3,2.5,1.6,1.47,1.17,2.62-1.13,2,1.2,3-1.15,2.31,0-.51,3.78-2.72,5.87-5.08-.53-2.26.89-10.37-3.27-3.36,1.71.37,1.34-1.15,1.12-5.33-1.93-.48-1.2-5.24-1.2-2.38-1.67.74-.83.72-.8L271,115.4c0-.51-.06-1-.08-1.53l-1.59-.71-1.76.44-1.66-.13-9.28.91-5.26,2.72-5.71-1.32L244,118.85l-2.29,1.09-2,2.71V125L238,127.42l-3.29,2-2.83,4.14-3.09,6.11,1.18,4.13-1.09,5.47.45,3.33,5.12,6.24,1.42,2.44,7,4.38,4.44-1,4,.58,6.81-2.54,3.29.27,2.22,2.82,3.78-.56,1.79,1.08L268,173.83l4.77,6.28,1.89,5,.69,4.74L272.17,199l3.85,8.23,1,7.33,4.54,8.71-.39.49-.29.62.5,1,.3.9.62.38.8.64.65.18.82-.56.53-.33,1.12.14.52-.28,1.71-.62,2,.42L291,226l1-.2,0-.47,1.64,0,1.88-1.16,2.69-2.76,2.07-2.84,1.06-1.21,1.05-1.19.41-3.08-.84-.33,1.75-1.25,2.08-.86.74-.71.07-1.6.11-1.11-.42-1.95-.61-1.32-.32-1,.57-.15,1.08-1.5,1.16-.37.72-1.11,1.34-1,2-.26,1.43-1.5,1.15-2-.33-1.77-.27-5.16-.87-.66-.16-.72-.4-.75-.09-1-.17-.72.3-1.49-.83-.91,2-5.86,1.11-.48.5-.37,5-5.23,1.79-1,2.95-2.77,1.73-2.46.66-1.67L330,158.3l.61-2.74v-1.18l-.5-.27-.85.69-2.92.54-1.61.16-.79.4-1.49.16-1.64.67-.93-.22-.61-.91-.57-.38-1.11-.33.23-.41,1-.32.15-.53-3.11-3.36-1.36-.63-.6-.55-.65-.63-.76-1.54-.3-1.2L310.55,144l-.76-1.23-.17-1.92-.5-2.18-.66-.77-1.29-1.44-.08-1.17-2.21-4.18-.71-1.53-.45-.94-1.56-2.21.29-1.28.78,1.19.76,1.6,1,1.13h.53l.41-2.1.26,1.74s1.62,1.78,1.76,1.92,1.16,1.56,1.16,1.56l.13,1.07.9,1.61,1.38.58.27,1,.76.89.54,3.22,1.52,1.07,1.25,2.1,1.38,1.84.09,1,.85,1.21-.45,1.38,1,1.61.19,2.21,2.18-.11,1.43-.89,1.07.08,1.11-.57.94-.68,1.08.21,1.52-1.23,3.69-1,.28-1.16,1.25-.54,2.64-.67h.83l-.2-.66.71-.63,1.43,0,.36-.74.62-.64,1-.49v-.74l.51-1.28.81-.38.41-.47.65-.94.78-1.49-.89-.67-.67-1.06-2-.62-1.09-1.19-.64-2.59-2.54,2.83-1.63.56-1.35,0-.91.48-.7-.52-.21-.94.22-1.44-.4-.5L330,133.69l-.8-1.62.1-.33-.44-.94-1.44-1.41-.61-1.37-.72-1.89,1.39-1.1.45.25,1.05,0,2,3.59,1.39.45.8.61a14.1,14.1,0,0,1,1.67.91,8.82,8.82,0,0,0,1.76.4l1.62-.94,1.43.27.53,2,6,.93.8-.19,2.69.34.4-.51.91.17.66.19,1.07-.09.7-.13.73-.28.47.64.69.82.31,1,.67.33.89.39,1.38,1.28.64-.06.89-.36.12.51-.56.47-1.53.24,1.57,1.82,1.63.78,1.25-.72.33-.83-.13-.44.6-.34.3,1.19.49.81-.42.94.82,5.54,1.57,3.73,1.11,3.28.72.94.53.81.58,1.38,0,.93,1.44,2.39.72-.11.68-.83,1.4-1.4,0-.89.9-.48.17-1.92.55-1.19.14-1.14-.24-1.15.21-1.57.55-1.25,1.21-1.13,3.38-2.42,1.62-1.75,1.47-1,1.24-1.36.08-1.22,1.14-.44,1.9,0,1-.28,1.2-.58.15-.77.77,0,.8,2.05.93,1.58,1.34.94.94,2.19.36,2.1-.49,1.29,1.45.65.7-.39,1-1,.26-.83,1.17,1.68.3,1.76.49,2.06.85,1.12-.1,1.64.21,1.46-.43,4.28.72.49,1.71,2.19.35,1.91.76,2,1.16,1.88,1.88,1.25,2.14,1-1.2-2.61.18-2.42-.36-.81-.8-.77-.14-.29-.59-.45-.72-.76-1.13-.46-.89-.82-.16-.9-.4-1-.37-.82-1-.77,1.28-5-.07-.82h1.16l.55,1.2,1.06-.09,1.79,1.16,0,1.33.93.15.07.81,1.2.11.8.73-.42,1.31.48.73,1.64-1.17.35-.58.4-.8,1.4-.2,1.23-.71,1.27-1.2.29-2.57-.48-2.31-1.33-2-1.43-1.09-1.3-1.56-.66-1.06-.08-1.54,1.07-1.31.2-1,1.05-.14.63-.63.92-.25,0-.32.53.09.77.54.76-.54.21.31-.14.59.34,1.31.3.11.14-1.16,1.61-.76,1.74-.67,1.66-1.14.84,0,1.66-.32,2-.36.44-1,1.24-.39.06-.76,1.49-.64.7-1,.7-.28-.16-1,.37-.19-.21-.73,1.44-.86.32-1,1-.55.31-1.22.16-1,.73-.53-.62-.18-.87-.32-.54-.31,1.59-.78-.09-.37-1.13-.57-1-.86.48-.32.94.58.76,0-1.65-1.57.11-.76-.95-1.83-1.34-.93v-1.17l1-.44.41-.59.44-.09.49-.85,2.51-.62.1-.28-1-.68-.8-.05-.67-.55-.81.93-1.7.41-.47-.69,0-.85-1.85-.27-.31-1,.57-.87h.72l1-.25.07-1,1.45-.15,1.42-1.27.79-.59.74.52-.1,1-.93,1.08.25.38-.54,1.16,1.12-.41,1.47-1.2,2-.45,1.33.4.53,1-1,1,.26.92.76.37.09-.41,1.07.19.35.21.59.44.36.59-.57.41-.41.18.53,1.56L443,117l.31.45-.05.85.63-.05,1.46-.34,1.13-1.09.63-.31.95.15.16-.56-.36-1.12-.13-1.51-3.06-3.75.29-.9.67-.09,2.34-1.53.54-1.82,1.67-1.63,1.62-1,1.74,1,3.47-2.18,1.63-1.88,2.78-3.34,1.84-2.59,1.07-1.92.43-3.19.59-1.89L466,86v-.72l-.37-1.3.46-.28-.56-.73-.91-.76-.39-.59-2.08-.25v.4l-.59.22-.74.76-.44-.23,0-.54-.14-1-.94,1.07-.17-1.53-1.72,0-.6-.35.22-.62.91-.47.26-.51,1.65-.89,1.1-.81.29-.62,2.23-1.93,1.3-1,.49-.86,1.45-1,0-.56,2-.94,3.76.09,1.09.32.16-.27,1.24.25,1.45-.2.73.09.64-.72,1.17-.27,1.38.67.9-.4.44.44.58.5-1.11.4.05.43,1.06-.34,1.39,0,.64-.19,1.07,0,.43-.27,1.13-.11-1.07-1,.48-1.22,2.08-1.48,1.11-.64.17-.71.63-.67h1.51l1.52-.4.45.59,1.09-.43-.7,1.72,1.08.22-.67.67,1.33-.38,1.39-1.45a11.21,11.21,0,0,0,1.94-.83l-.11-1.5,1.39-.53,1.61.09.09.8-1.12,0-.47.88-.25,1.29.41.33-.85.34-.13.64-1.26.4-1,.51-1.22,1.36-2.78,2.56-1.3,1.12-.9.4-.26.53-1.41-.07,0,1.19-.54.63L488,77.84v1.84l.36,3.62.58,1.47.14,2.28.4,1.09,1.11-.91.92-1,.51-.68.13-1.19,1-.69,1.11-.22-.13-1.27.38-.74,1.06-.64.55-.07,1.26-.24.24-.4L497.1,79l.44-1.31.63-.51.75.06.41-.13-.43-.93-.52-.51.54-1.25.36-.66-1.36-.08-.32-.19.15-1.36.8-.72.46-.62.51-1,.34-1,.8-.14.8.17.58.27,1.22-1.64.58.18,0,1.33,1.41-.8.71-.49,1.34-.09,2.06.36.76.88.22-.84,3.88-2.18,1.17-1,2.37-.67,2.59-1.24.09-.46.52.33.69.25,1.9.23.63-.71-.4-1.09L523,60.35l-.07-.47-1-1-.89-.55-.06-.45-1,.07-.7-.4.39-.71,1.1.29.8.73,1.71-.11,2-1,.43-.78.2-.35-.92-1,.56-.24.56-.49.44-.21.72.09-.56.88.38.64.49.49,1.22-.06.79-.2,1.48.58.31.94.84.75,1.5.53.43.37.54-.27.74.41.82-.17-.66-.83.73.18.16-.73.08-.69-.31-.8.18-.5,2,.67-.37-.8,1.17.34.17-.7,1-.31Zm-205.23,55,.09.93,1.11.89v3.48l-4,.84-.54-1-1.43-.8-1.34-.45-.48-1.33.27-.89.75-1.45.14-1.75-3.07-4.36-.11-1.3-.89-1.88,1.77-1.81,2.34-1.07,1.52-1h1.64l2.31.45.18,2.22-1.47.4-1.86.67-.23.84-.75.49,1.15,1,.49,1.16,1.07.62.71.76.49,1.82.89-1.29,1.16,1.38.71.89-1.51.31h-1.38Zm11.75-8.44-1,1h-1.13l-.28-2.8-.62,2.19-.79-.64.7-1.95.71-.66h1.29l1.16,1.06Z"/><polygon class="cls-1" points="302.39 117.08 303.29 117.58 304.74 116.96 304.74 116.11 305.52 115.71 303.39 116.36 302.39 117.08"/><polygon class="cls-1" points="289.24 116.45 290.5 116.86 291.44 117.03 293.46 116.4 292.53 116.34 290.63 116.34 289.95 115.96 289.24 116.45"/><polygon class="cls-1" points="277.75 111.71 277.13 112.83 277.13 113.89 276.73 114.13 276 113.59 273.46 112.22 274.19 111.71 274.73 111.62 275.6 111.78 276.55 111.62 277.75 111.71"/><polygon class="cls-1" points="268.79 102.87 268.97 103.93 268.88 105.01 268.48 105.68 268.08 105.5 267.61 104.5 267.61 104.08 267.85 103.68 268.79 102.87"/><polygon class="cls-1" points="266.85 106.83 267.6 106.74 267.94 106.57 268.65 106.38 269.18 106.61 269.32 107.12 269.23 108.13 269.21 109.05 269.08 109.57 268.29 110 268.03 110.22 267.61 110.28 267.39 109.78 267.41 108.33 266.85 106.83"/><polygon class="cls-1" points="258.26 109.28 258.66 108.74 259.59 108.56 259.51 109.28 258.92 109.53 258.26 109.28"/><polygon class="cls-1" points="246.4 89.52 246.86 88.52 247.5 87.84 248.32 87.17 249.46 87.17 249.99 86.94 250.32 86.5 249.55 86.63 248.72 86.5 247.9 86.24 247.61 86.05 247.17 86.21 246.48 85.81 246.81 85.52 248.11 84.82 248.25 84.5 247.89 84.21 247.36 83.92 247.57 83.52 247.8 83.2 247.91 82.69 248.27 82.74 248.61 82.89 249.81 82.67 249.84 81.76 250.03 81.1 249.75 80.83 249.16 80.48 249.3 79.82 249.39 79.21 249.1 79.21 248.37 79.67 247.68 79.8 246.74 79.58 246.87 79.21 247.32 78.25 247.2 77.61 247.16 77.02 246.98 77.29 246.73 77.94 246.29 78.2 245.94 78.13 245.8 77.62 245.67 77.29 244.6 77.66 244.96 77.32 245.85 76.73 245.47 76.42 245.1 76.23 245.05 75.93 245.73 75 245.6 74.82 244.96 74.63 244.41 74.18 244.51 73.93 244.96 73.83 245.43 74.26 245.77 74.22 245.8 73.84 245.84 73.62 246.47 72.81 246.98 71.62 247.4 71.55 248.56 71.66 249.03 71.52 249.7 70.92 249.73 71.3 249.47 71.81 248.98 72.57 248.34 73.06 248.18 73.48 248.63 73.59 249.12 73.47 250.02 73.39 251.17 73.45 251.63 73.68 251.28 74.94 250.71 76.1 249.7 77.03 249.94 77.29 250.83 77.22 251.3 77.51 252 77.89 252.3 78.27 252.57 79.34 253.08 80 253.59 80.22 254.18 81 254.18 81.61 254.93 82.74 254.95 83.56 255.25 83.86 255.5 83.86 255.68 83.65 256.66 83.71 257.26 84.43 256.98 85.04 256.01 85.87 255.62 86.5 255.9 86.76 256.6 86.82 256.11 87.37 255.08 87.82 253.57 87.84 252.77 88.26 251.69 87.72 251.28 88.16 250.24 88.05 249.34 88.26 249.3 88.45 248.63 89.12 248.09 88.73 247.51 88.9 246.4 89.52"/><polygon class="cls-1" points="243.89 73.26 244.05 72.57 244.89 71.92 244.89 72.39 244.4 73.04 243.89 73.26"/><polygon class="cls-1" points="252.38 68.39 252.32 67.69 252.9 66.8 253.05 67.25 252.79 68.02 252.38 68.39"/><polygon class="cls-1" points="244.69 78.73 246.08 80.22 245.94 80.6 245.39 80.93 244.78 81.33 245.02 82.34 245.16 84.18 244.8 85.05 244.04 85.13 243.44 85.13 242.46 85.64 241.17 86.36 239.75 86.36 238.84 85.58 238.86 85.3 239.69 84.8 239.92 84.09 240.49 83.61 240.45 83.25 239.42 82.36 239.57 81.98 239.39 80.85 240.37 81.05 240.82 81.08 241 80.82 242.13 80.45 242.22 80.2 241.51 79.49 241.75 79.12 242.46 79.04 243.21 79.21 244.69 78.73"/><polygon class="cls-1" points="272.62 77.22 271.93 77.4 271.49 77.93 271.71 78.58 272.21 79.02 271.79 79.42 272.19 80.09 272.62 79.96 273.23 79.13 273.64 77.22 273.13 77.58 272.62 77.22"/><polygon class="cls-1" points="281.56 75.08 281.94 73.52 282.58 73.13 282.5 74.11 282.07 74.69 281.56 75.08"/><polygon class="cls-1" points="287.3 72.68 287.56 71.54 287.9 71.37 288.86 71.66 288.03 72.02 287.3 72.68"/><polygon class="cls-1" points="327.95 47.01 329.03 46.6 329.91 46.05 329.58 45.47 328.57 45.07 327.27 45.32 326.81 46.02 327.11 46.62 327.95 47.01"/><polygon class="cls-1" points="340.99 41.77 338.94 39.95 337.88 37.98 337.88 37 338.83 36.36 339.03 35.25 339.61 34.97 340.6 33.51 341.32 33.22 341.32 32.31 342.3 32.14 342.68 31.47 342.68 30.92 343.49 30.71 344.11 30.43 345.88 29.77 346.87 28.92 351.28 27.22 354.48 26.33 358.03 24.93 358.61 24.08 358.35 23.66 357.35 23.38 354.98 23.9 353.72 24.55 353.05 24.85 351.27 25.13 349.89 25.58 348.9 25.61 347.86 25.27 346.35 25.88 345.51 26.04 344.5 26.44 343.35 26.61 342.24 27.31 341.08 28.02 340.79 28.46 339.79 28.47 339.17 28.75 339.61 29.76 338.59 30.47 338.51 30.84 338.14 31.45 337.54 31.97 336.42 32.33 336.19 32.74 336.97 33.34 336.41 33.63 336.27 34.03 334.94 34.7 334.73 35.25 333.58 35.55 334.36 36.48 333.47 37.37 331.93 37.91 331.6 38.35 332.15 39.18 333.11 39.24 333.38 40.35 333.94 40.56 334.02 39.41 334.86 39.9 335.28 40.42 335.16 40.71 336.15 41.63 338.44 41.95 340.99 41.77"/><polygon class="cls-1" points="360.48 35.23 360.2 34.64 360.84 34.03 362.8 34.7 360.48 35.23"/><polygon class="cls-1" points="373.48 35.9 374.29 35.15 374.63 35.41 374.64 35.9 373.48 35.9"/><polygon class="cls-1" points="420.96 31.85 421.85 31.14 422.3 30.87 423.67 31.41 423.3 31.85 422.3 32.13 421.64 32.13 420.96 31.85"/><polygon class="cls-1" points="464.88 34.16 466.24 33.1 467.37 33.01 469.16 33.95 469.33 34.88 468.22 34.88 466.1 34.66 464.88 34.16"/><polygon class="cls-1" points="473.51 29.14 473.51 28.62 474.07 27.96 475.07 28.55 476.25 28.64 477 28.55 478.01 29.19 478.86 28.82 480.26 29.19 480.77 29.67 480.27 30.08 478.37 30.4 476.67 30.33 475.46 29.98 473.51 29.14"/><polygon class="cls-1" points="464.11 32.15 465.32 31.7 465.77 31.94 465.67 32.6 464.87 32.6 464.11 32.15"/><polygon class="cls-1" points="460.8 29.72 459.63 28.6 460.22 27.23 461.78 25.84 462.57 25.66 464.94 27.21 465.46 27.04 465.77 26.41 466.52 26.23 467.6 26.51 469.33 27.04 470.84 27.13 471.57 27.69 471.57 28.23 471.25 28.42 470.98 29.19 470.72 29.72 469.33 29.63 468.48 29.18 468.13 28.69 468.2 27.97 467.55 27.69 467.42 28.07 467.86 29.72 467.22 29.72 464.88 30.07 464.11 30.11 463.46 29.8 462.53 30.11 461.23 30.16 460.8 29.72"/><polygon class="cls-1" points="523.18 41.6 523.36 40.8 525.17 40.02 526.83 39.91 528.81 40.75 528.47 41.2 526.94 41.6 525.31 41.55 524.57 41.2 523.81 41.6 523.18 41.6"/><polygon class="cls-1" points="537.51 61.09 539.38 60.51 541.69 61.09 542.14 61.44 541.55 61.87 540.73 61.87 539.79 61.52 539.05 61.49 537.51 61.09"/><path class="cls-1" d="M470.57,238.5s.33,1.13.48,1.55a8,8,0,0,1,.22,1.46l2,2.33.83-.6.34-.77.87.17.43-1.64-.07-2.3-2.53.54Z"/><polygon class="cls-1" points="503.98 248.28 504.38 246.65 507.45 244.06 510.42 242.11 511.65 240 512.42 238.7 513.89 239.3 515.09 238.94 515.29 240.17 514.74 241.17 513.12 243.54 510.95 245.38 510.18 246.95 509.18 248.68 507.25 249.54 503.98 248.28"/><polygon class="cls-1" points="513.86 228.09 516.02 234.2 514.79 235.57 516.79 237.37 516.36 239.77 517.73 239.97 519.4 237.63 519.86 236.07 520.86 235.73 522 233.5 520.53 233.56 519.06 233.43 517.49 231.33 513.86 228.09"/><polygon class="cls-1" points="155.06 265.47 152.18 263.94 151.09 263.04 150.67 262.36 150.36 262.33 150.17 261.97 150.8 261.55 149.97 260.88 148.66 260.88 148.8 260.07 149.23 260.07 150.22 260.26 149.59 259.21 149.28 256.75 150.36 255.73 151.01 255.42 151.4 254.09 152.36 252.99 154.13 251.52 154.4 250.05 152.53 249.44 151.69 248.19 151.86 247.03 153.25 246.18 154.33 245.95 154.7 245.15 155.1 243.68 155.39 242.72 156.19 242.41 156.1 242.07 156.17 241.47 157 241.97 157.72 241.47 157.6 240.81 157.21 240.66 156.57 241.07 155.73 240.67 155.5 239.54 155.31 238.46 155.43 238.14 156.49 238.35 157.72 238.5 158.89 238.59 159.57 237.9 159.4 236.94 159.7 236.47 159.99 236.12 159.64 235.4 160.17 234.8 160.91 234.8 162.94 234.76 165.28 234.23 166.57 233.6 167.28 232.5 168.28 231.19 168.28 230.55 167.65 230.19 167.13 229.72 167.38 228.89 167.37 228.34 166.55 227.99 165.41 227.51 165.48 226.96 166.02 226.87 166.61 227.16 167.53 227.25 168.91 227.78 169.72 227.66 170.78 227.72 171.99 227.35 173.19 225.95 174.41 224.78 175.02 223.38 175.35 222.28 176.09 221.18 176.28 220.18 177.15 219.85 177.15 220.54 176.1 222.19 177.47 221.13 178.34 219.63 179.15 218.07 180.2 217.28 180.64 216.33 180.6 214.81 180.51 213.28 181.13 211.77 181.99 211.32 183.03 210.33 185 209.47 186.36 208.72 187 208.1 189.51 208.13 190.84 207.7 190.84 206.99 192.17 206.66 192.17 205.61 192.95 204.63 193.43 203.67 193.43 202.93 194.11 202.42 194.32 200.92 194.63 200.14 195.12 199.79 195.12 198.55 195.43 197.19 195.29 194.3 195.43 193.09 195.79 192.43 195.52 192.18 195.78 191.74 196.72 192.04 197.18 191.45 198.33 189.07 199.35 188.61 200.51 187.43 201.46 185.63 201.67 183.48 201.27 181.7 200.69 180.41 199.47 180.39 198.28 180.05 197.31 179.44 196.25 178.46 194.71 177.28 192.42 176.97 191.34 177.15 189.19 176.49 188.87 176.39 186.91 177.36 187.21 175.92 185.6 174.63 183.67 173.79 182.06 173.51 181.52 174.03 181.33 174.91 180.84 174.76 180.4 175.19 179.86 175.73 179.63 175.22 180.77 173.87 180.93 173.49 179.42 172.65 177.89 172.69 177.34 173.57 176.93 173.85 176.62 173.34 176.72 172.65 177.6 172.54 178.83 170.75 178.44 169.8 177 168.49 176.51 166.25 174.89 164.44 173.32 164.07 171.75 163.52 169.49 163.69 168.8 163.22 168.08 163.47 166.55 162.27 165.88 161.92 165.5 160.89 164.28 160.1 163.01 159.59 161.54 159.53 161.94 158.3 159.7 157.47 159.48 156.77 159.9 156.63 159.3 156.18 155.73 157.3 153.22 156.42 152.06 156.77 150.99 156.39 150.72 155.35 150.21 155 149.42 154.92 148.49 154.13 148.06 155.1 147.09 155.46 146.02 156.26 146.65 158.19 145.56 158.59 144.92 157.94 145.59 155.97 145.39 154.92 145.75 154.63 146.46 154.13 146.12 153.69 144.92 154.25 143.84 154.71 143.12 155.26 141.75 155.7 141.75 156.18 140.76 155.64 139.65 156.9 139.65 157.7 138.78 158.59 137.61 160.07 137.28 160.15 136.61 159.38 136.02 158.62 134.92 158.17 134.74 159 135.48 159.35 135.17 160.04 135.16 160.54 136.06 161.6 136.86 162.26 136.84 163.24 136.84 164.07 136.73 164.85 137.11 166.41 137.35 166.77 136.11 168.56 135.25 168.83 134.77 169.68 134.47 170.31 134.3 170.81 133.11 171.19 132.94 172.15 132.27 173.05 132.27 173.61 131.42 174.34 131.77 175.17 131.43 175.89 132.62 176.78 133.04 176.82 133.11 177.28 132.37 177.76 131.42 178.42 131 179.09 131.57 181.16 131.1 181.56 133.02 183.04 134.63 185.14 136.59 189.92 138.65 192.91 138.49 193.91 139.11 194.98 142.45 196.98 145.62 198.72 146.2 199.62 147.71 200.97 147.9 203.65 147.82 206.19 147.22 208.46 147.81 209.18 147.24 209.93 147.21 211.89 146.59 214.77 146.22 215.88 146.16 216.78 145.52 217.64 146.09 219.44 145.53 220.54 145.6 221.92 145.52 224.38 145.27 224.84 145.18 225.75 144.73 226.88 144.21 228.82 143.15 231.43 142.45 231.9 142.58 232.8 142.68 233.39 142.64 234.3 143.16 235.5 142.68 236.64 142.38 237.5 142.17 238.39 142.18 239.27 142.45 239.7 142.05 240.17 141.46 241.49 141.44 242.77 142.12 242.81 142.45 241.8 142.45 240.37 142.78 240.1 143.52 239.26 143.75 240.1 144.1 240.28 143.85 240.77 143.72 242.04 143.31 242.82 143.38 243.55 143.08 244.21 143.15 244.94 143.52 245.38 143.12 245.58 143.18 246.48 143.13 246.72 142.41 246.91 142.4 247.32 142.59 247.78 142.36 248.03 141.83 247.74 141.58 247.51 142.09 246.7 142.25 246.51 142.23 245.88 141.93 245.51 141.6 245.38 141.31 245.56 141.56 245.96 141.91 246.36 141.85 246.78 141.58 246.79 141.18 246.84 141.13 247.13 140.78 247.37 140.28 247.62 140.21 247.86 140.35 248.35 139.77 248.71 139.47 249.07 139.45 249.45 139.7 249.49 139.79 249 140.15 248.86 140.39 249.06 140.6 249.49 141 249.4 141.49 249.33 141.66 249.71 141.66 250.04 141.33 250.22 141.07 250.57 141.01 251.12 141.09 251.3 141.51 251.25 142.03 251.16 142.41 251.25 142.78 251.54 142.6 251.88 142.16 251.62 141.71 251.46 141.45 251.62 141.13 251.85 140.55 251.69 140.17 251.74 139.66 252.06 139.54 252.52 139.7 252.62 140.11 253.19 140.42 253.13 140.71 252.71 141 252.33 141.47 252.33 141.62 252.84 141.38 253.11 140.71 253.42 140.57 253.68 140.13 254.15 139.76 254.54 139.81 254.83 140.06 254.94 140.44 254.83 140.41 255.32 140.8 255.39 141.04 255.14 140.93 254.65 141.09 254.12 141.53 253.91 141.71 254.12 142 254.56 141.55 255.04 141.28 256.32 140.9 256.74 140.79 257.06 140.38 257.29 140.52 257.49 140.32 257.96 140.35 258.19 140.57 258.16 140.91 257.87 141.33 257.82 141.51 258.1 141.91 258 142.29 257.87 142.42 258.17 142.22 258.5 141.51 259.2 142 259.12 142.38 259.03 142.67 259.55 142.83 259.34 142.94 258.76 143.37 258.83 143.88 259.1 143.86 259.66 143.47 259.91 142.96 260.01 142.25 260.03 141.99 260.34 141.99 260.65 142.36 261.07 142.72 260.84 143.22 260.53 143.72 260.26 144.66 260.26 145.38 260.42 145.52 260.67 145.39 260.86 144.76 260.88 144.43 261.11 143.82 261.25 143.65 261.13 143.29 261.1 142.96 261.35 142.82 261.67 142.57 262.11 143.19 262.18 143.32 261.78 143.92 261.56 144.59 261.56 145.11 261.33 145.8 261.09 145.92 261.37 145.86 261.8 145.25 262.11 144.53 261.9 144.15 262.19 144.02 262.73 143.89 262.92 143.12 262.74 142.41 262.53 142.11 262.72 142.22 263.05 142.73 263.66 143.21 263.72 143.63 263.63 144.14 264.03 144.67 264.36 144.97 264.04 144.59 263.74 144.41 263.25 144.84 263.05 145.58 263.21 146.2 262.9 146.35 262.23 146.27 261.73 146.49 261.26 147.39 260.75 148.08 260.66 148.11 260.91 147.85 261.3 147.01 261.85 147.12 262.24 147.44 262.53 148.01 262.36 148.46 262.25 148.62 262.47 148.61 262.72 148.16 262.88 147.79 263.13 147.95 263.67 148.03 264.07 147.67 264.23 147.46 263.8 147.22 262.97 146.86 263.04 146.78 263.28 146.92 263.9 147 264.23 146.68 264.1 146.19 263.63 145.79 263.56 145.64 263.79 145.87 264.35 145.58 264.41 145.16 264.52 145.02 264.8 145.1 265.08 145.69 265.08 145.94 264.88 146.29 265.11 146.52 265.47 146.73 266.17 146.89 266.37 147.12 265.71 147.12 265.2 147.5 265.02 147.65 265.36 147.99 266.28 148.49 266.61 148.97 266.61 148.82 266.27 149 265.89 149.38 266.08 150.31 267.03 150.74 267.22 150.87 266.94 150.6 266.58 150.13 266.05 150.38 265.8 151.06 266.14 151.98 266.33 152.26 266.07 152.32 265.8 153 266.08 153.53 265.69 154.27 265.69 155.06 265.47"/><path class="cls-1" d="M136,158.62l-1.78-.65h-.89l-1.25.8-1.1.38-1.75-.81-1.81-2.19-.28-.69.5-2.05.14-2.08.24-2.05-1.58-.86-.87-.4-1.79.16-1.41.51-1.53-.13-.77.09-.28-.47.48-.76.13-1.69.27-.81.55-.69.45-1.55,0-1.33.67-.75.27-1.11-1.18-.08-.85-.08-1.94.26-1.22.65-.3,1v.59l-.4.45V143l-.61.52-.42.51-1.14-.16-3.53.76L110,144l-1-.32-.7-1.85s-.94-1-1.2-1.26a6.46,6.46,0,0,1-.63-1.25s-.22-2.63-.22-2.81v-2l.61-1.61-.26-.56-.85-1.23,1.07-1,0-1,.8-.49.5-.76,1.12-.11.77-.59.35-.87h.94l.66-.58.77.06.32-.16.74.58.6.07.31-.29.28-.36.72.83.57.35,1.21,0,.16-.47,1.33.94.3-.09-.63-.68-.3-.83.08-.39.93-.27h1.17l.44-.43.24.16.11.42.58.08,1-.24.47-.07.88.31.42.46.22.38.23.25.51-.1.69-.57.53-.21.51.34,1.35,1.51.2.41-.2,1.07.36.58.06.76.47.63.2,1.18.48.3.62.83.11.32.66.45.43-.12.19-.61.34-.74.19-.72-.45-2-.39-.82-.17-.37-.05-.7-.67-1.21-.32-1.22-.06-.87.23-.88.64-1.15.9-1.11.64-.32.56-.22.26-.52.82-.82.61-.08.47-.11.34-.64.88-.57,1-.33-.33-.79.06-.54h.31l.46.22.57-.15.62-.58v-.26l-.56-.1-.38-.3L139,115l.17-.42-.29-.44-.62-.22-.17-.15.34-.54v-.46l-.27-.3-.68-.51,0-.32.65-.22.16-.4v-1l.18-.73.37-.1v.26l-.23.57,0,.58.12.31.4.74,0,.73,0,.79.5-.62.54-1.39v-.66l-.16-.19a1.86,1.86,0,0,1-.23-.47.85.85,0,0,1,.12-.28l.42.39.33.07.64-.58.64-1v-1l.84-.14.9-.11.92-.27.38-.22-.24-.24-1.31.19-.75,0,.44-.35,1.47-.36.78-.12.33-.66.43.33.49.06.65-.39v-.63l-.55-.35-.16-.14.34-.43,0-.63.34-.73.29-.31.5-.21.26-.21.22-.24.41-.07.4-.37.38-.55L150,100l.47.12.69.25.51-.2,1.13-.84,1.58-.66.59-.17,1-.9.28-.34.19.2v.34l-.24.23.07.32,1.6.24-.3.22-1.14.06-.76,0-1,.92-.8,1,.05.36.75.59.68,0,.91-.56.5-.57.31-.41.45-.25.94-.11,3.1-1v-.3l-.1-.29.29-.23,1.5-.39.41-.35v-.32h-.32l-.63-.09.15-1-.23-.22-.55.43-.25.38-.12.28-.65.59-.06.52-.57.12-.82.1-1.24-.18-.46-.2-.26-.38-1-.59-.43-.37-.13-.43-.37-.79.23-.5.21-.58-.21-.17h-.2l-.47.25-.33.17-.23-.15,0-.27.41-.35.93-.36.52-.36.22-.57-.41-.89-.68-.23h-.9l-2.31.54-2.12.84-.66.4-1.31,1.24-1,1-.56.29-.13-.1L148,94.23l.4-.54.06-.53.16,0,.76-.53,1-1.11.88-.56h1l.21-.6.94-1,1.09-.27,4.35-.21H163l1.1-.47.7-.49.68-.69.51-.48.5-.13h.9l.76-.08.66-.39.68-.66L170,85l-.44-.24-.63-.34.38-.12.34-.19L170,83l-.6-.51-.59-.53-.48.19-.42.27-.29,0-.21-.17.26-.81-.28-.28-.52-.09h-.7l-1,.72-.41.26-.8.19-.46.36h-.27l0-.48.35-.39.47-.08.41-.58h.67l.52-.12,1-.35a1.18,1.18,0,0,0,.55-.15.75.75,0,0,0,.18-.42l-.36-.34-.77-.07h-.55l-.88-.72-.52.12-.43-.32-.38.16H163l-.38-.4-.45-.83-.77-.7-.72-.47L159.59,76l-.07-.26.42-.06.45.17.48-.17.44-.59-.18-.48-.43-.18-.21-.26,0-.69L160,73l-.42-.38-.12-.29-.3-.34-.2-.36-.07-.25-.18-.26-.2-.29-.12-.34-.07-.22-.46-.62-.39-.52-.11-.31-.09-.28-.28-.43-.4-.66-.25-.3-.26.31-.21.67-.29.41-.36.45.13.24.14.3-.47.36-.14.24.09.58-.39.05-.22.48-.17,0-.36-.27-.35,0-.14.15-.14.44-.43.34-.73.27-.38,0-.27-.35-.41-.27-.22,0-.4-.65-.59-.07-.44-.16-.09-.7-.59-.54.2-.45-.3-1.42.09-.61.41-.66-.22-.25h-.36l-.45.24-.46-.37L147,66l-.59-.08-.65-.33-.23-.55-.43-.3-.43-.54-.45-.23-.25-.51-.38-.09L143,63l-.36-.19h-.59l-1.07.46L139.79,63l-.36.12-1.23-.52-.77-.13h-.92l-.1.18-.34.36-.25.33,0,.41.18.4a4.05,4.05,0,0,0,.53.35c.09,0,.26.28.26.28l.06.34-.36.21-.1.34-.43.55.42.56.33.78.34.6,0,.76-.24.16-.41.08-.2.6-.51.77-.34.6.12.5.69.31,1.43.94.33.78.34,1.36-.1,1-.24,1.17-.76.73-.81.57c-.09.07-.62.56-.62.56l-.79.44-.75.12-.5.09.16.75.61.67.13.31-.06.69.08.65.21.74.15.6.43.65-.23.47-.6.7.4.31-.06.48-.61-.35-.45-.18-.25.61-.13.5-.15.08L132.6,87l-.43-.19-.35-.85-.75-.56-.43-.38-.19-.55-.67-.6-.25-.46v-2l-.19-.6.16-.64.1-.65-.54-.45L128.3,79l-2.05-.09-.9-.09-.62-.38L124,78l-1.18-.45-1.23-.6-.51-.65-1.23-.68-.49-.27-.75-.14h-.57l-1.83-.78-.91.21-1.33.45,0-.29.27-.57-.66-1.64L113,71.31l-.4-.16-.92,0-.92-.36-.29-.81.19-1.78.4-1.17.65-1.41.2-.59,1-.53.12-.28.08-.55.12-.2.54-.2.18-.35.07-.38.44-.1-.24-.37.19-.17,1.23-.1.81-.27.35-.71-.3-.33-1.07-.16-.69-.15-.34-.49-1.83-.51-.31-.23.6-.1,1.21.22,1.38.4,1,.32.7,0,.75-.11-.08-.87v-.34l.39,0,.77.26.86.18.47-.14,1-1.13.44-.57.41-.39.25-.38-.44-.31-1-.05h-1l-1.06-.46-.85-.64-.27-.4.27-.18h.63l.86.49,1.52.86.54.07.57-.29,1.66-1.5-.11-.2-.54-.28-.36-.2.13-.32.68-.16h.56l.5.34.27.34.54,0s.77-.18.92-.19a.82.82,0,0,0,.31-.12l-.31-.52-1-.6-.06-.22.27-.19.31.17.42.38.49.34.23.37.23.21,1-.36.89-.54.48-.5.47-.21.51-.59-.09-.61-.36-.46-.55-.48-.19-.81-.16-.11-.43-.52.18-.13h.57l.84-.15.42-.54-.51-.42-.08-.19.4-.37-.12-.26-.64-.16-.69-.16L129,45l-.15-.36-1.11-.14-1-.27h-1.36l-.49-.06-.25.69.38.75.5,0,.22.4-.25.29-.18.17-.09.5h-.6l-.27.28-.24,1.19-.35.54-.45.18-.13-.31-.17-.61-.16,0-.35.24-.1.48.25.44.43.08.14.86-.12.26-.57.15-.38.32-.12.17-.13,0-.32-.53-.27-.33-.82-1-.18-.61.24-.52.4-.15.14-.26-.18-.74-.14-.38-.58-.39s-.47-.47-.56-.54a5.63,5.63,0,0,0-.7-.25l-.42.19-.22.55-.15.37-.34.26a2.3,2.3,0,0,0-.17.33c0,.1-.35.76-.35.76l-.23-.36L117,46.49l-.13-.23-.18-.43.38-.21.5-.28,0-.24s-.32-.44-.46-.3-.79-.16-.79-.16l-.44-.22-.48.16-.36.18-.29,0-.12-.57.14-.52,0-.21.1-.14.37,0,.4-.2v-.28l-.4-.22-.42-.23-.27-.14v-.42l-1.17-.48-.1-.26.17-1.07-.31-.38-1.07-.81-.81-.17-.25-.3.14-.35.38-.1.34-.29.86-1.09,0-.17-.36-.18-.21-.29.46-.15h.68l1.07.29.44,0,.75-.78,1.29-1.86.42-.75-.26-.27-.6-.08H115L114,32l-.88-.22h-.73l-1.4.16-1,.34v.27l.35.4-.1.34-.5-.18-.31,0-.05.54.07.78v1.24l.54.85.43,1-.21,1-.29.34-.6.25.33.4.14.5-.2.27-.49-.2-.55-.2-.34.4-.16.66.06.45.61.42-.2.44-.37.77.21.6,1,.56,1.14.29,1,.34c.07,0,.62.33.62.33l-.55.5.08.48-.5.87.1.21.25-.32.53-.71.34,0,.25.64-.07.5-.1.3-.57.27-.25.19a3.19,3.19,0,0,1-.37.45,2.91,2.91,0,0,1-.54.31l-.83,0-.19.24.3,1,.2.63-.31.24-.64-.05-.85-.54,0-.7.42-.9v-.19l-.59-.06-1-.21-.38-.31-.06-.33,1.16.17.48-.17.15-.41.91.07.73-.06.39-.34-.08-.63-.66-.51-1,.2-.4-.29.24-.25.6,0h.4V45l-.43-.21h-.48l-.46.09-.6,0-.43-.24-.68-.55-.52-.12-.46.25-.26.64-.26.62-.54.24-.58.07-.24.27.3.29.63.27.87,0c.09,0,.65.16.65.16l.25.36-.14.36-.35.3-.16.15-.52-.14-.37.16.19.47v.27l-.17.4-.16.33-1-.17-2.19.13-1.4.25-.94-.09-.81-.35-.76-.49-1.06-.06-.43-.15-.5-.43-.54-.1-.4-.18-.19-.6v-.62l-1,0-1.39.28-.57.26-.93.22-.86.57-.09.42.4.22.52-.07.29-.11.33-.29h.62l.5-.09.88-.41.57-.21,0,.14-.28.49-1.16.54-1.26.33-.32.34.21.84.64,1a2.72,2.72,0,0,1,.14.49l-.36.14a.16.16,0,0,0-.22.11,2.65,2.65,0,0,1-.15.35L90.38,52l-.06-.4.35-.34-.19-.55L90,50.24l-.55-.12v-.38H89l-.34,0-1.09-.6-.53.14-.93.25-2.31.28-2.4,0-1.56-.39.15-.57.63-.4.92-.2.23-.07-.33-.63-.71-.6-.89-.39-1.16-.18-.27.28-1.59-.25L75.35,46l-.83-.35-1-.12-1.34-.38-1.36-.79-1.23-.23-1.49.3-.28.3-.37.43-1.37.2-.26-.16.33-.81L66,44.13l-.17-.8-.17-.08-.41.32-.55.94-.56.7-.52.18L62.94,45l-1-1.87-.58-.74L60.64,42l-.44,0-.06.17.27.49.19.46-.31.1-.37.12,0,.19-.33.66-.53.36-.25,0-.14-.27-.57,0-.6.39-.5.52-.54.32h-.35l-.2-.22-.88.19L53.92,46l-.39.47-.07.34-.6.31-.58-.06v-.23l1.53-1.13,1.74-1,.7-.17L57.61,44l.56-.49L58,43.31l-.66,0-1,.05-1.06.47-1,.46-1,.25-.45.21,0,.48-.5,0H52l-.35.24-.29-.15.14-.36-.69-.26-.14.08-.22.36-.78.17-1.14.44.07.53.47.26.33.27-.2.33L48.49,47l-1.15-.41-1,0-1.26-.42-1.49-.89-.23-.29-1.55-.17-1.7-.13-1.83-.68-1.23-.28-1.46.2H34.2l-1.4-.44-1.26,0-.86-.05-2.54-.93H26l-1.54.31L24,42.52l-.25-.18-.56-.1-.15-.69-.64-.23-1.31.15-.91.11-.36-.18v-.67l-.53.14-.35.31-.72.36-.45-.16V41l.6-.32-.09-.17-.92-.35-.45,0-.76.48L15,41.49l-1.76.13-1.3.21-.1.22.33.4v.4l-.33.09-.56-.51-.35.41-.51.2-1.18.11-.37,0-.57.31-.86.81-.34.35L7,45.2l-.24.63-.63.63-1.53.46L3,47l-.55,0-.09.54-.16.55.21.28,1.24.48,1,.3c.06,0,1.06,1.21,1.06,1.21l.69,1.19.32.19,1.16-.11h1l.3,0,.17.94.34.22,1.16.14.14.29-.36.23-.68,0-.76.25-.93.54L7.78,54,6.4,54l-.52,0-.09-.28L6,52.84l-.54-.13-1.24.39-.79.51,0,.39-.25.16L2.65,54l-.43,0-1.06.52L0,55.3l.33.39,1.31.41.67.12-.2.29-.21.39.43.23.19.47.93.52L5,58.18,6.24,58l.83.28.47.05.6-.63,1-.67.76,0,.33.17.21.36L9.93,58l-.15.15.43.71.17.76-.51.76-.77.2-.59-.09-.33-.06-.39.64-.41.59H6.6l-.41-.26-.52-.24L5,61.28l-.19.54,0,1-.44.13-.59.19-.26.26-.3.7-.36.3-.65.08.41.64.56.64.34.08L4,66l.16.43L3.88,67l-.12.33.18.12.72.19.71,1.08.44.5.48.16.58-.23.71-.2.36-.08.27-.63.36.34.39.69.09.31L8.94,70l-.18.44.05.71v.35l.69.23.81-.2.29-.36.58-.31.8.22.7.54.6.51.17-.36.12-.64.38-.31.23.44.4.18,1.14-.28.46-.14.07.21-.5.64-.33.92v.62l0,.72-.56.44-.91,1.07-.3.17-.67.21-.93.66-1.16,1.19L9,77.77l-.43.17-.36.61-.67.72-.21.31,0,.15.91-.28.89-.68.16-.41.38.37.51.16.72-.56.36-.19.74.06.51-.2.83-.34.69-.17.21-.73,1.06-.84,1.12-.49.71-.22.25-.72,1.12-.44.74-.69.54-.31.84-.21.06-.76.23-.26.51-.19.4-.67-.55-.27-.79-.24.16-.31.49-.47.58-.28h.54l.49-.58,0-.31L23,68l.69-.47.61-1,.49-.21.58-.44.65-.43.38.18s.14.28.37.24a2,2,0,0,1,.54,0l0,.49-.54.07-.63-.19s-.38.08-.45.11-.73.67-.73.67l-.15.67-.37.65-.16.64.42.22.17.29-1,.61.53.26.58-.07.83-.33,1.59-1.14,1.47-.4,1,.21-.13-.53L30,68l-.4-.36-.4-.65.11-.42.52-.2.26-.43.76.4.56,0,.58.62.4,0,.55,0,.15.32-.82.18-.3.25L32,68l.82-.4.54-.09.49.36L34,68l.47-.43.31-.17,0,.47s.54.36.6.38,1.79.22,1.79.22l2.06-.09.53-.07.65.59.68.31.77,0,.74-.63.33.05.22.36-.52.57,0,.23.45.22,1.72.67.62.67,1.19.85.69.34.2-.29,0-.63.2-.07.62.36.32.07.42.32.31.24.18-.32s-.13-.47-.16-.53l-.26-.87,0-.41.52.29.17.46.18.47,0,1.33s-.12.37-.24.41a2.72,2.72,0,0,1-.57,0L48.78,73l-.07-.29-.32,0-.62.31v.38l.55.83.64.39.31.62.16.41.36.37.34.5a1.41,1.41,0,0,0,.22-.38c0-.09-.2-.94-.2-.94l-.32-.9c0-.08,0-.65.18-.53l.43.22-.07.7.06.26.41-.09.63-.62-.14-.81,0-.42.52,0,.31.79.1.51-.33.44-.29.47-.75.23-.09.84.26.72.44-.71.31.29.65-.47.17.16.61.77.66.23.1-.24-.27-.32L53,76.46,52.87,76l.29-.35.52,0,.65,1.07.09.64-.47.39-.41.3-.49-.3-.52-.4-.31.11.2.64.18.4,0,.54-.13.41.2.51.31.14a.8.8,0,0,0,.11-.27,2.44,2.44,0,0,1,.08-.37l.19-.1.58.27.07.13.31-.4,0-.43.27-.17.5.44.15.14.17-.24.38-.27.22.42L55.9,80v.15l.47-.15.18.27.31.49.32.27-.05.27-.54.17.18.4.16.71.24.5.76-.16.65-.29.29.25-.19.72-.06.36.3.31.4-.17.4-.08.83.85.51.49-.41.18-.27.13,0,.59.43.28a3.65,3.65,0,0,1,.13.56.83.83,0,0,0,.15.35l.73.37.72,0,.84.24.42.63.8.23.54-.24.27.86.14.4,1,0,.59.25.56.15.48.15.15.75.42.74.25.46L69,93l.11,1L68.8,95l-.62-.09.17-.58.18-.56-.38-.38L67.87,93,68,92l-.71-.22-.23-.17L65.56,91l-.5-.74L64,89l-.61-.16-1.18-.13-1-.57L60.56,88l-.52.18.36.51.29.57.52.09.65.5.39.3.63.44.83.27.34.8.77.33.27.39.39.46.45,1.53.52.84.18.62.1.33.73.6-.27.1-.46.05-.08,1.32-.09.86-.07,1.72-.12,1.32-.49,1.58.25.75.38.93.08.77-.21,1.25.08.77.22.5.24,1.37.23.6.65.6.49.7.7.58.17.81.5.38.28.32-.08.85.54.77,1.29,1.22.21.7.07.35,1,.22,1.22.8.71.12.45,0,1,.89.59,1.34.49,1s1.4,2.43,1.43,2.51.3,1.08.3,1.08l.86.89,1,.62.65.85.09,1.15-1.2.1.5.66.71.52.66.22.66.09,1,.91.62.95s.12.49,0,.7a1.08,1.08,0,0,0-.19.44l1,.78,1.21.82,1,1.18.2.47.45.06.29-.53-.29-.72-.05-.48-.22-.38-1-.15-.36-1.34-.56-.66-.41-1.47-.75-1.18-1-1.34-.6-.92-.48-.47.17-.8-.67-.25-.86-.39-.54-.62L80.66,124l-.33-1.37.33-.21.56.57.57-.12.48.44.21.18.79,0-.12.63.13.73.73,1.51-.2.73.15.61h.31l.24-.21.47.21.6.66.5.38.76.49.23.68.51.32.35.15.44.5.45.13.11.69-.13.67,1.33.89.44.44.7.79,2.68,3,.87,1.54.17.49-.15.82.09.51-.48.3.7,1.58.51.29.7.21,1.46,1.26.69.32,1.19.24,2.87,1.45,1.33.28,2.7,1.41,1.44.41,1.6-.57,1.23-.21,1.84.74,1.65,1.46,1.92,1.48h1.52l.93.46,2,.54.49-.2h.45l.13.57,0,.38,1.13,1.1.9.85.51.61-.11.6-.2.47.6.83.78,0,.27-.12.28.38.68.25.48.42.11.37.36.68.87.12,1.47.48.79.67.78.45.55.21.62-.51-.43-.83.14-.27.66-.46.23-.44,1.11-.3.33.2Z"/><polygon class="cls-1" points="116.17 172.18 115.56 173.14 115.87 173.77 116.68 173.99 116.78 173.08 116.17 172.18"/><polygon class="cls-1" points="162.07 259.76 162.17 258.92 162.94 258.29 163.81 258.03 163.81 258.71 162.94 259.59 162.07 259.76"/><polygon class="cls-1" points="164.08 259.9 164.43 259.21 165.28 258.66 166.55 258.76 166.22 259.28 165.31 259.76 164.08 259.9"/><polygon class="cls-1" points="196.85 264.01 198.15 264.86 199.08 265.82 199.84 265.45 199.15 264.51 198.34 264.2 196.85 264.01"/><polygon class="cls-1" points="160.66 156.59 160.7 157.3 161.84 157.16 161.76 156.28 160.66 156.59"/><polygon class="cls-1" points="152.53 144.62 153.2 144.01 154.69 144.23 155 144.62 154.38 145.01 152.99 145.01 152.53 144.62"/><polygon class="cls-1" points="135.37 144.48 136.36 145.01 137.77 145.26 138.44 145.02 137.69 144.48 136.69 144.28 135.37 144.48"/><polygon class="cls-1" points="141.31 144.35 142.24 144.01 144.25 143.81 143.27 142.44 143.25 141.75 144.25 141.75 145.63 142.17 147 142.18 148.79 142.61 150.22 143.43 150.46 143.88 149.63 144.51 148.5 144.35 147.32 144.48 145.45 145.15 144.46 144.74 143.25 144.82 142.48 145.01 141.31 144.35"/><polygon class="cls-1" points="126.16 138.81 128.19 137.23 130.15 136.81 132.16 137.11 135.37 138.41 137.94 139.64 139.31 139.97 140.73 140.63 141.58 141.55 139.74 141.82 137.87 141.82 136.71 141.68 136.52 141.17 135.97 140.48 134.91 140.06 133.87 139.14 131.81 138.72 130.62 138.51 130.18 138.01 129.13 137.44 127.85 138.27 126.91 138.83 126.35 138.93 126.16 138.81"/><polygon class="cls-1" points="135.78 133.45 135.53 134.14 135.78 134.73 136.05 135.15 136.65 135.76 136.65 134.88 136.24 134.6 136.09 133.45 135.78 133.45"/><polygon class="cls-1" points="63.81 37.74 65.49 35.41 65.42 35.01 66.11 33.83 66.52 33.23 66.48 32.74 65.78 32.08 65.17 31.26 66.45 31.26 68.87 30.75 70.56 30.6 71.33 31.07 72.21 31.39 73.09 31.54 73.88 31.46 74.09 31.96 75.42 31.47 76.8 31.74 78.52 32.7 79.53 33.47 79.12 34 76.3 35.25 74.63 35.81 74.09 36.1 73.75 37.08 72.95 37.43 72.21 38.01 72.03 38.75 71.67 39.62 70.56 39.88 69.86 40.05 69.43 40.25 68.63 40.25 68.09 40.95 67.37 40.25 66.53 38.61 65.42 38.45 64.36 38.26 63.81 37.74"/><polygon class="cls-1" points="74.89 36.88 77.11 35.48 80.82 34.13 81.71 34.84 81.96 35.51 81.77 35.89 80.79 36.3 81.14 36.88 82.31 36.61 82.45 35.89 82.79 35.34 83.82 35.2 85.07 35.51 85.71 36.34 85.71 37.04 86.55 36.58 87.78 37.04 87.91 36.61 87.78 35.89 86.78 35.34 87.36 35.2 88.75 35.74 89.58 36.41 90.09 37.8 90.72 39.02 91.75 38.6 90.64 35.74 90.65 34.54 91.1 34.31 91.75 34.56 92.25 34.54 94.32 35.34 93.86 34.79 92.45 33.74 93.29 33.17 94.44 32.94 95.85 33.36 96.09 33.96 95.54 34.82 94.9 35.78 95.01 37.38 95.79 38.61 96.09 39.02 95.88 40.05 96.39 40.75 98.18 41.64 99.96 42.53 101.19 43.3 101.46 43.95 101.25 44.3 100.85 44.29 99.33 44.02 98.27 44.63 97.86 45.02 98.2 45.4 98.95 45.4 99.27 44.93 100.17 45.4 100.36 45.89 99.99 46.42 98.33 46.85 96.48 46.85 95.85 46.7 95.25 46.36 93.32 45.69 92.85 45.04 91.97 45.91 91.17 46.46 89.98 46.56 88.69 46.85 86.47 47.51 84.39 47.51 82.48 46.96 82.17 46.09 82.08 45.54 80.15 45.65 78.7 45.35 77 44.53 76.63 43.95 77.3 43.39 80.42 43.08 83.15 43.12 84.91 42.69 83.82 41.96 81.09 41.86 79.77 41.95 77.75 42.03 75.71 41.5 75.36 41.02 75.86 40.53 77.61 40.25 79.3 39.48 78.73 39.37 77.18 39.67 75.76 39.95 75.16 39.22 74.35 38.96 74.09 38.48 74.97 37.45 74.89 36.88"/><polygon class="cls-1" points="101.51 35.93 99.59 35.01 98.97 35.47 99.33 36.4 100.73 37.21 102.06 37.94 104.25 40.05 104.88 39.91 105.66 39.18 106.13 39.03 107.32 38.73 108.01 37.53 108.47 35.34 108.47 34.96 107.74 34.62 107.54 35.14 107.69 35.74 107.46 36.28 106.93 35.32 105.47 35.01 105.49 34.62 106.48 34.11 107.4 33.41 107.38 32.94 106.61 32.52 106.34 32.01 105.54 31.77 104.91 31.9 104.4 32.47 104.81 32.77 104.25 33.04 103.53 32.74 102.73 32.54 101.46 32.77 100.85 33.3 100.93 33.94 101.83 34.14 102.73 34.22 103.03 34.45 102.6 35.28 102.12 35.78 101.51 35.93"/><polygon class="cls-1" points="68.95 26.6 68.42 25.73 69.26 24.91 70.76 24.64 71.59 24.05 72.08 23.57 74.55 21.96 75.3 21.86 76.6 22.21 77.3 22.06 77.4 21.59 77.88 21.25 78.23 21.46 79.44 22.13 78.41 22.43 78.5 22.93 78.58 23.57 78.5 24.06 77.3 24.66 76.6 25.36 75.9 25 75.75 23.72 75.09 23.57 74.69 24.48 74.32 25.67 74.09 25.95 73.56 25.73 73.03 25.95 72.29 26.87 71.73 26.53 71.22 25.66 70.73 26.28 70.02 26.4 69.52 26.19 68.95 26.6"/><polygon class="cls-1" points="73.96 27.6 74.6 26.78 76.3 26.07 75.96 26.78 75.13 27.39 73.96 27.6"/><polygon class="cls-1" points="80.3 20.19 81.31 19.99 82.16 20.19 82.31 20.59 82.02 20.91 81.3 20.91 80.3 20.19"/><polygon class="cls-1" points="82.77 18.86 83.11 18.29 84.98 17.87 86.27 17.48 87.78 17.48 88.36 17.75 88.91 18.45 88.3 19.12 87.25 19.12 86.38 18.79 85.52 18.85 84.58 18.99 84.13 18.66 83.47 19 82.77 18.86"/><polygon class="cls-1" points="83.43 20.32 84.35 19.98 86.91 19.66 87.78 19.66 88.3 19.98 87.85 20.26 87.05 20.53 87.25 20.86 86.68 21.81 85.11 22.19 83.92 21.97 83.33 21.59 83.11 20.86 83.43 20.32"/><polygon class="cls-1" points="93.92 20.73 94.44 20.46 95.58 21.24 96.25 22.2 96.19 22.53 95.51 22.66 94.44 21.93 93.92 20.73"/><polygon class="cls-1" points="95.92 28.2 96.26 27.84 96.95 28.02 97.38 28.52 97.32 28.93 96.63 29.19 95.92 28.81 95.92 28.2"/><polygon class="cls-1" points="80.44 24.46 79.44 25.12 78.33 25.58 78.19 25.95 78.71 26.36 79.92 26.53 79.56 26.83 78.19 26.78 77.25 27.49 77.77 27.67 78.83 27.49 79.56 27.49 78.57 27.84 77.25 28.11 76.63 28.53 77.3 28.77 78.57 29.07 79.56 29.36 80.29 29 81.72 27.84 81.84 28.4 81.84 28.81 82.62 28.88 84.22 28.64 84.98 28.6 85.52 29 84.47 29.36 81.87 29.9 81.31 30.54 81.98 31.07 83.46 31.26 85.99 30.54 87.39 29.84 88.3 29 89.45 29.55 90.49 29.19 91.68 29.19 93.32 29.2 94.16 28.52 94.4 26.96 93.85 26.13 93.21 26.07 92.62 26.53 92.18 26.73 91.5 26.53 90.45 25.33 90.06 24.46 89.38 23.73 88.3 24.21 87.35 25.16 87.78 25.4 88.37 25.58 88.46 25.95 87.91 26.4 88.3 26.78 88.91 27.24 88.91 27.84 87.78 27.69 86.54 27.49 85.58 26.93 84.67 26.07 83.11 25.4 82.04 25.33 81.3 25.58 81.01 24.71 80.44 24.46"/><path class="cls-1" d="M95.27,17l-.55-1.68,1.13-.17,1.91.08,1.3.69.27.49.73-.36.79.49.81.58.66.08,1.11.55v.91l.82.8s.34,0-.18.4-1.34,0-1.34,0l-1.47-.34-.59-.4L99,18.59l-1.17.07-1.71.25-.77-.65.94-.18,1.46-.23-.31-.7-.76-.36Z"/><polygon class="cls-1" points="102.86 13.05 104.25 14.06 104.87 13.78 104.36 13.08 103.87 12.89 102.86 13.05"/><polygon class="cls-1" points="107.8 29.34 108.91 28.13 110.83 27.61 112.28 28.47 112.93 29.49 112.34 30.4 110.64 30.24 107.8 29.34"/><polygon class="cls-1" points="116.16 21.81 117.33 21.03 118.08 21.19 118.5 21.73 117.95 22.2 117.33 22.66 116.16 21.81"/><polygon class="cls-1" points="108.67 21.46 109.34 20.93 111.2 20.6 113.08 20.66 112.48 21.17 110.83 21.81 109.83 21.81 108.67 21.46"/><polygon class="cls-1" points="105.73 17.12 105.73 17.9 106.51 19.46 107.03 20.04 107.67 20.32 110.83 19.66 110.31 19.12 110.53 18.3 109.77 18.04 108.87 18.12 107.74 17.67 106.55 17.12 105.73 17.12"/><polygon class="cls-1" points="127.5 63.25 127.5 62.38 128.17 61.94 129.55 61.46 130.03 61.58 129.64 62.42 128.97 63.04 128.12 63.39 127.5 63.25"/><polygon class="cls-1" points="133.57 63.05 132.9 63.39 132.9 64.18 133.37 64.71 133.93 64.18 134.16 63.39 133.57 63.05"/><path class="cls-1" d="M97.81,24.12l-1-.32-.73.32.13.87,1.12,1.39,1.68.95h1.79l1.41-.45.4.39-.36,1.25,0,.62,1,.35,2.84-.48.57-.94-.14-1.54a6.82,6.82,0,0,0-.35-1.46,9.23,9.23,0,0,0-1.38-.81l-.51.24-1.5-.51-1.35-.42v.51l1,1.32.2.43-1.22-.46-.71-.44-.86-.4.29,1,.19,1h-.6l-.87-1Z"/><path class="cls-1" d="M107.85,23.38,110,23l.92.09,1.44.53,1.61.65,1,0,2,0,2,1.18-.94.18-.29,1,.76.27,1.18.08.61.72h3.57l1.38-.27s1.24-.28,1.42-.29,5,.24,5,.24l2,.65-.37,1.56-1,.85-1.56.12h-1.37l-1.49-.56-.66.56L125,30.8l-3.51-.19-1.5-.74-1.06.47-.94.46-.81-.4-1.35-.58-.93-.33-.3-1,0-1.79-2-1.53-.7.17-2.76-.8-1.28-.77Z"/><polygon class="cls-1" points="125.26 54.4 123.76 55.77 123.52 56.64 123.28 57.16 123.36 57.84 123.28 58.53 122.09 59.84 122.58 60.08 123.96 59.77 124.76 60.98 125.77 60.73 127.3 59.58 128.24 59.09 129.23 59.51 130.81 60.03 132.3 59.58 131.62 58.92 130.23 57.91 129.7 57.23 128.06 56.47 125.97 55.52 125.26 54.4"/><polygon class="cls-1" points="136.97 50.36 136.97 49.02 137.78 48.21 139.26 48 140.62 49.18 140.04 50.5 138.79 50.94 137.71 50.94 136.97 50.36"/><polygon class="cls-1" points="131.7 33.14 132.75 32.77 134.16 33.27 135.19 33.27 136.97 33.85 138.51 35.14 136.1 35.5 134.91 35.74 134.16 36.02 132.9 36.02 132.64 35.01 132.3 34.22 131.7 33.71 131.7 33.14"/><path class="cls-1" d="M125.49,33.07l-4.39.47-1.55,1L118,36.75l.2,3,.91.3,2.29.3.74.45-.71.24-1.79-.2-.84.38.67.79,1.32.63,1,0,1.12-.11.41.44.6.35,2.41.12,3.34.6,1-.22.55-.45,2.35.67,1.05-.2-.2-.94-.14-.71,1.57.46.71.65.8.74,1.13.74,1.14.79L138,46.89h.82l1.52-.67.71.67.69.8h.85l1.42,1.47.34,1.17-.34,1.43,1.16.2,1.31-.4.83-.05,1.44.45v1.2l-1.23.62h-.91l-.36-.7L145,52.35h-2.13l-1,1.42.56,1.12-1.09.86-1.57.07-2-.37-.89.58-.9.56,0,1.31.93.34,2.41-.21,1.24.13.23-.4,2.27-.13.69.61,1,.92.51.3.36,1.64,1.17.35h1.43l1,.78,1.85,1.15,1.68.79h.77l.26-.79L151.55,61,150.06,60l.39-.27,1.88.67,1.55.83,1.36.12,1.16-.68.23-.76-.92-.5-.19-1.07-.35-.78-1.11-.7-1.15-.19-1.2-.78-.27-.88.15-.41.2-1L152,53l.61-.18.92.64,1,.42.91,1.08,1.77,1.43.7-.92,1.54-.87.39-.86,1.55-1.08v-.57l-.52-.36-1.22-.14-1,0-.19-.58s.27,0-.1-.51a7.14,7.14,0,0,0-1.51-1.16L155.73,49l-1.1,0-1-.83L152.58,48l-1.1-.59-.42-1,.59-.36,1.48-.1L152,45.39l-.62-.3.36-.44.56-.7-.4-.47L151,42.9l-.61.79-.46-.09.47-.7.26-.41-.81-.67-1.9,0-.81-.13.11-.72-1.14,0-.79.35h-.86l-.34-.58,1.34-.1.59-.6v-.39l-.88-.46-1,.19-.34.34-.39.35-.47-.44-.6-.67-.27-.65-1.7-.47L140,36.82l-1.21-.52L137,36.08l-1.54.61-.12.66-.2.38-.66-.24-.08-.48-1.26,0-.81.63-.4.13-.28-.76.35-1.77-.55-.85-.52-1-.86-.7-1.28.25-.8.45-1.73.74-1.07.22-.85,1,.67,1.07.25.4,0,.63-.58.49.31.45.76.13.36.45,0,.72s-.71-.09-.84-.14-1.21-.53-1.21-.53l-.76-1,0-1.21L123,36l.44-1.21,1.12-.94Z"/><path class="cls-1" d="M156.73,90a11,11,0,0,1,4.14,1.4l-.27.81Z"/><polygon class="cls-1" points="169.96 86.61 167.77 88.08 166.92 89.43 166.69 90.69 166.69 91.54 166.06 91.44 165.24 91.54 165.21 92.33 165.21 92.73 164.65 93.5 164.77 94.15 165.55 94.15 166.64 94.11 167.57 94.15 168.43 94.11 169.49 93.62 169.96 93.85 170.6 94.11 170.24 95.17 171.13 94.89 171.53 94.64 172.39 94.66 172.64 95.43 173.55 95.64 174.33 95.27 174.33 94.65 173.67 93.93 173.33 94.2 173.3 93.54 173.58 93.13 173.78 92.75 172.95 92.77 172.61 92.73 172.62 92.16 173.04 91.3 172.66 90.8 171.84 90.99 171.41 91.3 170.97 91.13 170.51 90.72 169.96 90.2 169.84 89.84 169.49 89.55 168.68 89.88 168.19 89.84 168.81 88.81 169.17 88.08 169.49 87.55 169.88 87.12 169.96 86.61"/><polygon class="cls-1" points="111.68 8.51 112.46 9 110.88 9.18 110.37 9.29 110.81 9.78 111.41 10.23 110.64 10.45 109.54 10.51 108.91 10.73 108.91 11.75 109.81 12.18 110.37 12.34 110.37 12.89 109 12.91 108.47 12.91 107.97 12.91 108.47 13.72 108.93 14.06 109.25 14.69 109.94 15.32 111.26 15.42 112.46 15.28 113.52 15.13 114.35 15.45 113.89 15.93 112.56 16.27 111.68 16.72 112.93 17.49 113.81 18.32 115.52 19.22 117.35 19.32 117.95 18.98 119.06 18.72 119.48 19.26 120.22 18.72 120.64 17.75 121.02 17.59 121.4 17.59 121.79 17 122.56 16.32 123.96 15.95 125.09 15.45 124.61 14.84 123.62 14.78 122.52 14.88 122.02 14.34 122.16 13.78 121.56 12.89 121.49 12.38 121.36 11.84 120.71 11.71 120.42 12.11 120.19 12.5 119.36 12.26 119.02 11.45 117.33 10.5 114.86 9.3 113.84 8.51 112.93 8.08 112.03 7.97 111.68 8.51"/><path class="cls-1" d="M114.86,7.19l1-.56L117,6.35l1-.07.67.23.58-.23.62-.71.89-.25.67.11.78.48.42.09.67-.29-.09-.54.09-.33,1.12-.17.26-.37L125.1,4l.76.08,1.37.54.76.33.68-.15L129,4.1l1.23-.3,1.36.36V2.86h2l-.4-.43.4-.24,1.47.1,1.64.46.81-.56.75-.09,3-.14,1.1.53.71.25.08-.44.94-.77h1.12l1,.53,2.2-.43,1.65.35,2.2.1,1.42.15-1.34,1.11.74-.17,2.21-.62,1.19.15,1.74.47V4l1.73.38h1.87l-1,.86-2.66,1.25L156.37,7h-2.45l-1.86.75h1.43l2.45-.11.59.38-.85.62-1.61.45-2.54,1.06-2.15,1.23-2,1.08-.6.16-.55.83-.72.51h-1.09l-1.17-.27-.68.07-.18,1-1.05.43-2,0h-2l-.5.74L138,16l1.78,0,1.32.39.2.47-.76,1.6-1.06,1-1.18.46-1.07-.05-1.73.25.35,1.09-2,.64-1,.07-1.59-.19-1,.19-.12.5,1.44.24h1.62l1.13.53.74-.05,1.06.05.19,1-.51.34a1.07,1.07,0,0,0-1.36,0,8.51,8.51,0,0,1-2,1.09l-1.1-.32-1.51-.7h-3.4l-1.42.66-1.68-.5-2.71-.13-1.84-.18-.36-.85,1.3-.62,2.55-.53-.28-.57-1.34-.64.16-.68h2.67l.86,1.06.67.58,1,0,.34-.42-.67-.76-1.07-1.24,1-1.13-.71.2-2,.46-1.08.14-.55-.67,1.06-1.2,1.77-.47,2,.2,1.43.43,1.55.47.12-.37L127.56,17l-1.13-.95-.81-1.59-2-.21-.7-.6,0-1.45,1.25-.24,2.38.18,1.79.77.87.65,1.89.5-1.35-1.17L129,11.65l1.42-.05,2.68-.47,1.43-.9V9.1L134,8.8l-.12.51-1.72,1-1.75.43-1.33.09-1.16-.38-.44.58-1.23.32-1.72-.13-1.33-.53.25-1.31-.71.58-1.61.48L119,9.84l-.44-.4-1-.53,1-.94-1.18-.07.09-.59.33-.59-1.2.39-.77.27Z"/><path class="cls-1" d="M172.15,4.44l-3.78.63-1.44.09-1.37.35.18.62.44.48-.62.17-1.23-.53-1.43-.06-1.52.7.49.69.15,1-.19.58h-1.46l-1.43-.44L156,9.78l-3.91,2.62.76.37h1.45l1.48.21.28.58-.51,1.16-1,1-1.23.31h-1.78l-1.49.28-.93.7-2.49.55-2.19.72-.35.83.39.56.84.28,1.63.27,1,.74,1.9.32L151.3,21,153,20.8l.77.5.15.54-1.53.23L151.3,22l-1.4.15-1.08.28-1.46.07-1.15.37.47.4,1.49.21,1.1.2-.3,1.1,1.78,1,1.45.51.91.11.07-.75.71-.08.82.3.32.08.72-.3,1-.14.73-.11.7-.35,5.25,1.4,1,.43,1.27.69.19,1,.45.54,1.55.89,1,.91.32.92.13,1,.82.89.15,1,.75.6V36l-.78,1.12.15.68-.13,1.15.72.58,1.11-.25,1.16-.72.36,1,1.3,1.06,1.28.52,1,.94v.31h-.93l-1.68-.76-2.53.16.78.6,2.31,1.12,1.54.21.69.68.06.82-.25.63-.06,1.46-1.51.09-1.41.42-.33,1.11-1.11,1.76.33.77,1.14.52-.21.5-1,.84.54,1,1.26,1,.56.69V58l.65.31.36,1.15.54.58.45.67.8.89,1,2.13.93.85.76,1.12,1.41.62h.51l1,.44.8.08,1,.68,2.62,1,1.12-1.15.36-1V65.15l.63-.54L190,62.69l-.49-.22L190,62l1.29-.19.62-.94.62-1.16.26-.49-.42-1,.79-.3V57l-.66-.38.08-.52,1.08.37.35-.14-.1-.49.37-.68,1.39-.26.69-.35.22-.89.32-.51.37.06v1.3l.95-.33L200,54l2.26-1,1.32-1.46.89-1.33,1.14-.69v-1l1-.12,1.08.34.32-.4,1.24-.17.85-.33.7-.1,4.12-.82.91-.41,1.1-.74,2.33-1.12,2.09-1.39-1.88.49-1.79-.44-1.7-.49-1.39.58-.09-.33,1-1,.53-.47-.14-1.36.67.07,1.35,1,1.48,1.08,1.23.14,1.09-.45-.1-1.17.1-.81L220.38,39l-2-1.41-.6-.62.87-.42,1.35.69.61.08.68-.77.14-.87-1.35-.46-1.12.22-1.56.54-1.07-.4.28-.75,1.27-.57-.15-.85,2.35.85,1,.13,1.39-.18,1.32-.77-1.1-.87-1.08-.67.73-.37h1.45l1.57,0,.62-1-1.29,0-1.34-.27-.64-.7-.07-.6.87-.33,1.37,0,.81-.65-.09-1.16-.73-1-2.14-.12-.85-.66-.51-.46-1.1-.76,1.11,0,.93,0,1-.48,1-.07,1.68.25.93,0,.31-.48-.58-.9-.67-.22-.74.14h-1.52l-.23-.68.41-.44h1.64l-.69-.65-1.75-.46-1,.67-1,.44-.35-.53,1.22-.87.3-2,.57-.53,2-1,.12-1.16.85-.66,1.62-.23.35-.48-.76-.64-.62-.09s-1.85,1.12-2.17,1S224,13,224,13l1.28-.59,1.78-.13,2.6-.5v-.37l-.91-.26-1.85,0h-1.14l.83-.42,2.08-.16,1.81-.52,1.21-.26,1.18-.66,1.45-.37,1.93-1.18L235.18,7l-2.35-.62-1.71-.2-2.34.37-.62.52-.45,1.16-1-.28-1.18-.24-1,.38-.4-.85-.46,0-1.51,1.29-2.06,1-1.9,1.29.62-1.15,1.47-1.56c.11-.12.9-1.85.9-1.85l-.57-.62-.87-.12-1.21.35-.32.89-2.54.81L213,8.26l.39-.47,2.23-1.09.49-.39L215.06,6H212l-2.77.23-2.68.8-1.7.18.23-.57s1.83-.6,2.06-.65,5.27-.69,5.27-.69l2.41,0,1.86-.13,1.89-.74,2.36-.28,1-.39-.76-.72-3-.41L217,2,215.19,1l-.64-.19h-2.66L211,.43,209.62,0h-2.46l-4,0L200.1.08l-1.75.41-1.07,0-.89.29.29.71-.43.54-.82-.29-.69-.63L193.59,1l-1.45.5-2.68-.46-.91.4L184,1.81l1.52,1.38-1.14.34h-1.3l-.23.46.73.43L186.2,5.9l1.12.94-.67.26-1.21-.66-1.87-.88-1.45-.34-1-.69-1.94-.68-1.78,0-.05.48,1.38.85.49.77-.62.39-1.47-.31-1.17-.68-1.27-.77L174,4.51l.09.76.07,1.21-.29.89-1,.67.07-.53.12-1.77Z"/><polygon class="cls-1" points="171.31 44.53 171.97 42.9 173.02 42.97 174.04 43.35 174.47 43.78 175.13 44.34 175.67 44.89 174.76 45.64 173.38 45.79 172.03 45.03 171.31 44.53"/><polygon class="cls-1" points="218.75 54.08 217.99 55.08 218.37 55.45 219.44 55.44 220.53 55.2 221.26 55.44 220.97 56.17 220.89 56.62 218.48 57.06 219.81 57.06 220.66 57.1 221.19 57.66 221.64 58.17 221.64 58.68 220.37 59.35 220.79 59.53 222.28 59.28 223.41 59.53 225.48 60.48 226.85 60.3 227.62 59.77 228.7 59.38 229.49 59.15 230.53 58.59 232.04 58.18 232.72 57.42 233.88 56.3 233.1 55.06 232.44 54.81 232.01 53.39 230.98 53.46 229.54 52.77 229.35 54.15 228.47 53.74 228.16 54.27 227.87 53.77 227 53.9 226.22 53.63 225.22 54.32 224.62 54.01 223.93 54.48 223.73 55.17 222.75 55.61 222.22 55.07 222.35 54.41 221.41 53.41 220.06 52.9 219.64 52.77 220.28 53.74 219.72 53.7 218.75 54.08"/><polygon class="cls-1" points="18.53 141.78 18.07 142.72 18.61 143.62 19.69 143.01 18.53 141.78"/><polygon class="cls-1" points="12.22 138.81 13.12 139.11 13.12 138.43 12.22 138.81"/><polygon class="cls-1" points="14.58 139.81 15.03 140.25 15.51 139.97 14.58 139.81"/><polygon class="cls-1" points="17.43 140.5 17.18 141.28 17.9 141.28 18.07 140.5 17.43 140.5"/><polygon class="cls-1" points="54.06 81.44 52.72 82.29 53.39 83.58 54.06 84.32 55.3 84.97 55.3 84.43 54.73 83.22 54.59 82.64 54.06 81.44"/><polygon class="cls-1" points="19.93 74.39 21.03 73.99 22.36 72.46 23.53 72.02 23.83 72.76 22.76 73.26 23.33 74.16 22.71 74.77 21.36 75.56 20.56 75.56 19.93 74.39"/><polygon class="cls-1" points="0.94 68.55 1.86 69.24 3.04 69.19 3.34 68.15 2.23 68.7 2.27 68.08 0.94 68.55"/><polygon class="cls-1" points="0.94 82.87 1.14 82.02 1.74 81.74 1.86 82.29 1.4 82.64 0.94 82.87"/><polygon class="cls-1" points="4.61 80.87 4.88 80.35 5.67 79.97 6.61 79.87 6.87 80.35 6.43 80.37 5.81 80.47 4.61 80.87"/><polygon class="cls-1" points="270.48 16.89 270.88 17.9 271.81 18.49 272.48 18.96 271.48 17.65 270.48 16.89"/><path class="cls-1" d="M271.21,15.65c-.13-.32-.26-.65-.4-1l.4-.53.62-.31.58-.22,1.07.1,1.27-.2.61-.09.4.22-.14.17-.76.26-.67.15.51.31.55.24.23.4.28.2.15-.25v-.59l.33-.43.26-.39.25-.19.52.32.31.82.5.81,1.12.91s-.24-1.06-.27-1.16-.67-1.11-.67-1.11l-.23-.33.43-.37.37-.74.63.75.35-.17.81.12.57.38v.16l-.35.61,0,.45.51-.29.51-.3.47.55.17.6.65.05.93.3.22.34.38-.14.24-.11.49.11,0,.16,1,.51.17,1,.53.11.54.36.11.28-.22.33,1.62.26.13.24-.3.53.3.16.68,0,.64-.16.66.16.09.19-.57.38-.5.27-.48.48-.73.55-.54.19-.39-.1-.07-.41v-.49L287.8,21l-.5.28-1.44.25-.21-.28.36-.44.47-.72-.07-.53-.42-.12v-.24l-.54-.34-.49-.65.4-.34.4-.06,0-.37h-.41l-.75.24-1,.15-.79.71-.19.47.11.33-.24.25-.46.32,0,.55,0,.37-.32.24-.8.47L280,22.7l-.28.77-.14.63-.43.2h-.44l-.47-.5-.79-.41.88-.35-.09-.38h-.49l-.74.17-.3-.17-.94-.57-.56-.63.32-.3.67.13.43,0,.24-.37.92-.28.78,0,.9-.22.06-.29-1.4,0-1.64.16-1,.11-.6-.13,0-.34.38-.32,1-.2.8-.09.47-.43s.58-.24.76-.28.53-.19.53-.19l.31-.57-.13-.52-.51.32s0-.06-.58.2-.8.15-.8.15l.08-.22.23-.6,0-.4H277l-.16.46-.19.28-.49.11-.28.55-.33.54-.81.2-.8-.07-.73-.43-.78-.59-.51-.6.05-.45.53-.63.59-.53-.31-.17-.49.11-.5.3-.38,0Z"/><polygon class="cls-1" points="284.19 14.62 286.36 15.14 287.06 15.18 287.59 15.18 287.95 14.9 288.49 15.35 289.54 15.69 289.89 15.69 290.67 15.4 291.24 15.25 292.56 14.95 293.08 14.62 293.31 14.23 293.89 13.88 294.73 13.43 295.11 13.13 295.24 12.71 294.9 12.4 294.23 12.29 293.11 12.29 292.27 12.18 291.54 11.9 290.5 11.74 290.04 11.95 289.72 12.47 289.2 12.35 289.02 11.59 288.67 11.33 288.33 11.38 287.88 11.73 288.08 12.68 287.8 12.96 287.29 12.67 286.97 12.4 286.87 12.18 286.21 12.21 285.72 12.26 285.45 11.81 285.02 11.51 284.19 11.2 284 11.18 284.09 11.57 284.1 11.85 283.81 11.89 283.19 11.62 282.99 11.55 282.99 11.95 283.03 12.38 282.79 12.31 282.15 11.67 281.89 11.58 281.57 11.77 281.43 12.05 281.08 12.22 281.38 12.4 281.83 12.68 282.12 12.98 281.78 13.22 281.86 13.38 282.25 13.56 282.81 13.7 284.04 13.79 285.25 13.63 286.63 13.52 287.33 13.55 287.35 13.79 286.63 13.89 285.23 14.19 284.61 14.35 284.19 14.62"/></svg>